<mxfile host="app.diagrams.net" agent="Mozilla/5.0 (Windows NT 10.0; Win64; x64) AppleWebKit/537.36 (KHTML, like Gecko) Chrome/127.0.0.0 Safari/537.36 OPR/113.0.0.0" version="24.7.17" pages="2">
  <diagram name="Autocarros" id="Afz0JCWJkAf0QODYoYIq">
    <mxGraphModel dx="1032" dy="507" grid="1" gridSize="10" guides="1" tooltips="1" connect="1" arrows="1" fold="1" page="1" pageScale="1" pageWidth="827" pageHeight="1169" math="0" shadow="0">
      <root>
        <mxCell id="0" />
        <mxCell id="1" parent="0" />
        <mxCell id="BS6h6t6-BCitYu4ugSEv-1" value="Veículo" style="swimlane;whiteSpace=wrap;html=1;" parent="1" vertex="1">
          <mxGeometry x="38" y="116" width="150" height="100" as="geometry" />
        </mxCell>
        <mxCell id="BS6h6t6-BCitYu4ugSEv-2" value="número: Int&lt;div&gt;tipo: String&lt;/div&gt;&lt;div&gt;lotação: Int&lt;/div&gt;" style="text;html=1;align=left;verticalAlign=middle;resizable=0;points=[];autosize=1;strokeColor=none;fillColor=none;" parent="BS6h6t6-BCitYu4ugSEv-1" vertex="1">
          <mxGeometry x="14" y="30" width="80" height="60" as="geometry" />
        </mxCell>
        <mxCell id="BS6h6t6-BCitYu4ugSEv-5" value="Motorista" style="swimlane;whiteSpace=wrap;html=1;" parent="1" vertex="1">
          <mxGeometry x="452" y="116" width="150" height="100" as="geometry" />
        </mxCell>
        <mxCell id="BS6h6t6-BCitYu4ugSEv-6" value="código: Int&lt;div&gt;nome: String&lt;/div&gt;&lt;div&gt;categoria: String&lt;/div&gt;" style="text;html=1;align=left;verticalAlign=middle;resizable=0;points=[];autosize=1;strokeColor=none;fillColor=none;" parent="BS6h6t6-BCitYu4ugSEv-5" vertex="1">
          <mxGeometry x="14" y="30" width="110" height="60" as="geometry" />
        </mxCell>
        <mxCell id="BS6h6t6-BCitYu4ugSEv-10" value="Linha" style="swimlane;whiteSpace=wrap;html=1;" parent="1" vertex="1">
          <mxGeometry x="239" y="273" width="150" height="100" as="geometry" />
        </mxCell>
        <mxCell id="BS6h6t6-BCitYu4ugSEv-11" value="numero: Int&lt;br&gt;sentido : [ida, volta]" style="text;html=1;align=left;verticalAlign=middle;resizable=0;points=[];autosize=1;strokeColor=none;fillColor=none;" parent="BS6h6t6-BCitYu4ugSEv-10" vertex="1">
          <mxGeometry x="14" y="40" width="130" height="40" as="geometry" />
        </mxCell>
        <mxCell id="BS6h6t6-BCitYu4ugSEv-12" value="Paragem" style="swimlane;whiteSpace=wrap;html=1;" parent="1" vertex="1">
          <mxGeometry x="459" y="273" width="130" height="100" as="geometry" />
        </mxCell>
        <mxCell id="BS6h6t6-BCitYu4ugSEv-13" value="nome : String" style="text;html=1;align=left;verticalAlign=middle;resizable=0;points=[];autosize=1;strokeColor=none;fillColor=none;" parent="BS6h6t6-BCitYu4ugSEv-12" vertex="1">
          <mxGeometry x="14" y="45" width="90" height="30" as="geometry" />
        </mxCell>
        <mxCell id="BS6h6t6-BCitYu4ugSEv-15" value="*&amp;nbsp; &amp;nbsp; &amp;nbsp; &amp;nbsp; &amp;nbsp; &amp;nbsp; &amp;nbsp;*" style="text;html=1;align=center;verticalAlign=middle;resizable=0;points=[];autosize=1;strokeColor=none;fillColor=none;" parent="1" vertex="1">
          <mxGeometry x="384" y="299" width="80" height="30" as="geometry" />
        </mxCell>
        <mxCell id="BS6h6t6-BCitYu4ugSEv-17" value="" style="endArrow=none;html=1;rounded=0;exitX=1;exitY=0.5;exitDx=0;exitDy=0;entryX=0;entryY=0.5;entryDx=0;entryDy=0;" parent="1" source="BS6h6t6-BCitYu4ugSEv-10" target="BS6h6t6-BCitYu4ugSEv-12" edge="1">
          <mxGeometry width="50" height="50" relative="1" as="geometry">
            <mxPoint x="379" y="363" as="sourcePoint" />
            <mxPoint x="439" y="353" as="targetPoint" />
          </mxGeometry>
        </mxCell>
        <mxCell id="BS6h6t6-BCitYu4ugSEv-23" value="passa por" style="edgeLabel;html=1;align=center;verticalAlign=middle;resizable=0;points=[];" parent="BS6h6t6-BCitYu4ugSEv-17" vertex="1" connectable="0">
          <mxGeometry x="0.3008" y="-8" relative="1" as="geometry">
            <mxPoint x="-10" as="offset" />
          </mxGeometry>
        </mxCell>
        <mxCell id="BS6h6t6-BCitYu4ugSEv-18" value="Zona" style="swimlane;whiteSpace=wrap;html=1;" parent="1" vertex="1">
          <mxGeometry x="669" y="273" width="120" height="100" as="geometry" />
        </mxCell>
        <mxCell id="BS6h6t6-BCitYu4ugSEv-19" value="nome : String" style="text;html=1;align=left;verticalAlign=middle;resizable=0;points=[];autosize=1;strokeColor=none;fillColor=none;" parent="BS6h6t6-BCitYu4ugSEv-18" vertex="1">
          <mxGeometry x="14" y="45" width="90" height="30" as="geometry" />
        </mxCell>
        <mxCell id="BS6h6t6-BCitYu4ugSEv-20" value="" style="endArrow=none;html=1;rounded=0;exitX=0;exitY=0.5;exitDx=0;exitDy=0;entryX=1;entryY=0.5;entryDx=0;entryDy=0;" parent="1" source="BS6h6t6-BCitYu4ugSEv-18" target="BS6h6t6-BCitYu4ugSEv-12" edge="1">
          <mxGeometry width="50" height="50" relative="1" as="geometry">
            <mxPoint x="399" y="333" as="sourcePoint" />
            <mxPoint x="579" y="333" as="targetPoint" />
          </mxGeometry>
        </mxCell>
        <mxCell id="BS6h6t6-BCitYu4ugSEv-21" value="pertence" style="text;html=1;align=center;verticalAlign=middle;resizable=0;points=[];autosize=1;strokeColor=none;fillColor=none;" parent="1" vertex="1">
          <mxGeometry x="593" y="318" width="70" height="30" as="geometry" />
        </mxCell>
        <mxCell id="BS6h6t6-BCitYu4ugSEv-22" value="*&amp;nbsp; &amp;nbsp; &amp;nbsp; &amp;nbsp; &amp;nbsp; &amp;nbsp; &amp;nbsp; 1" style="text;html=1;align=center;verticalAlign=middle;resizable=0;points=[];autosize=1;strokeColor=none;fillColor=none;" parent="1" vertex="1">
          <mxGeometry x="589" y="296" width="80" height="30" as="geometry" />
        </mxCell>
        <mxCell id="BS6h6t6-BCitYu4ugSEv-24" value="Percurso" style="swimlane;whiteSpace=wrap;html=1;startSize=23;" parent="1" vertex="1">
          <mxGeometry x="370" y="433" width="112" height="80" as="geometry" />
        </mxCell>
        <mxCell id="BS6h6t6-BCitYu4ugSEv-25" value="&lt;div&gt;tempo : Time&lt;/div&gt;" style="text;html=1;align=left;verticalAlign=middle;resizable=0;points=[];autosize=1;strokeColor=none;fillColor=none;" parent="BS6h6t6-BCitYu4ugSEv-24" vertex="1">
          <mxGeometry x="13" y="37" width="90" height="30" as="geometry" />
        </mxCell>
        <mxCell id="BS6h6t6-BCitYu4ugSEv-27" value="" style="endArrow=none;dashed=1;html=1;rounded=0;exitX=0.5;exitY=0;exitDx=0;exitDy=0;" parent="1" source="BS6h6t6-BCitYu4ugSEv-24" edge="1">
          <mxGeometry width="50" height="50" relative="1" as="geometry">
            <mxPoint x="391" y="483" as="sourcePoint" />
            <mxPoint x="426" y="343" as="targetPoint" />
          </mxGeometry>
        </mxCell>
        <mxCell id="BS6h6t6-BCitYu4ugSEv-30" value="" style="endArrow=none;html=1;rounded=0;entryX=0;entryY=0.5;entryDx=0;entryDy=0;exitX=1;exitY=0.5;exitDx=0;exitDy=0;" parent="1" source="BS6h6t6-BCitYu4ugSEv-33" target="BS6h6t6-BCitYu4ugSEv-5" edge="1">
          <mxGeometry width="50" height="50" relative="1" as="geometry">
            <mxPoint x="408" y="152" as="sourcePoint" />
            <mxPoint x="364" y="-45" as="targetPoint" />
          </mxGeometry>
        </mxCell>
        <mxCell id="BS6h6t6-BCitYu4ugSEv-31" value="" style="endArrow=none;html=1;rounded=0;entryX=1;entryY=0.5;entryDx=0;entryDy=0;exitX=0;exitY=0.5;exitDx=0;exitDy=0;" parent="1" source="BS6h6t6-BCitYu4ugSEv-33" target="BS6h6t6-BCitYu4ugSEv-1" edge="1">
          <mxGeometry width="50" height="50" relative="1" as="geometry">
            <mxPoint x="339" y="15" as="sourcePoint" />
            <mxPoint x="368" y="15" as="targetPoint" />
          </mxGeometry>
        </mxCell>
        <mxCell id="BS6h6t6-BCitYu4ugSEv-32" value="" style="endArrow=none;html=1;rounded=0;exitX=0.5;exitY=1;exitDx=0;exitDy=0;entryX=0.5;entryY=0;entryDx=0;entryDy=0;" parent="1" source="BS6h6t6-BCitYu4ugSEv-38" target="BS6h6t6-BCitYu4ugSEv-10" edge="1">
          <mxGeometry width="50" height="50" relative="1" as="geometry">
            <mxPoint x="324" y="503" as="sourcePoint" />
            <mxPoint x="374" y="453" as="targetPoint" />
          </mxGeometry>
        </mxCell>
        <mxCell id="BS6h6t6-BCitYu4ugSEv-33" value="Viagem" style="swimlane;whiteSpace=wrap;html=1;startSize=23;" parent="1" vertex="1">
          <mxGeometry x="240" y="126" width="148" height="80" as="geometry" />
        </mxCell>
        <mxCell id="BS6h6t6-BCitYu4ugSEv-34" value="horario_partida : Time" style="text;html=1;align=left;verticalAlign=middle;resizable=0;points=[];autosize=1;strokeColor=none;fillColor=none;" parent="BS6h6t6-BCitYu4ugSEv-33" vertex="1">
          <mxGeometry x="8" y="35" width="140" height="30" as="geometry" />
        </mxCell>
        <mxCell id="BS6h6t6-BCitYu4ugSEv-39" value="" style="endArrow=none;html=1;rounded=0;exitX=0.5;exitY=1;exitDx=0;exitDy=0;entryX=0.5;entryY=0;entryDx=0;entryDy=0;" parent="1" source="BS6h6t6-BCitYu4ugSEv-33" target="BS6h6t6-BCitYu4ugSEv-38" edge="1">
          <mxGeometry width="50" height="50" relative="1" as="geometry">
            <mxPoint x="314" y="206" as="sourcePoint" />
            <mxPoint x="314" y="273" as="targetPoint" />
          </mxGeometry>
        </mxCell>
        <mxCell id="BS6h6t6-BCitYu4ugSEv-38" value="" style="rhombus;whiteSpace=wrap;html=1;fillColor=#000000;" parent="1" vertex="1">
          <mxGeometry x="304" y="253" width="20" height="20" as="geometry" />
        </mxCell>
        <mxCell id="BS6h6t6-BCitYu4ugSEv-40" value="*&lt;div&gt;&lt;br&gt;&lt;/div&gt;&lt;div&gt;1&lt;/div&gt;" style="text;html=1;align=center;verticalAlign=middle;resizable=0;points=[];autosize=1;strokeColor=none;fillColor=none;" parent="1" vertex="1">
          <mxGeometry x="289" y="202" width="30" height="60" as="geometry" />
        </mxCell>
        <mxCell id="BS6h6t6-BCitYu4ugSEv-42" value="a)" style="text;html=1;align=center;verticalAlign=middle;resizable=0;points=[];autosize=1;strokeColor=none;fillColor=none;" parent="1" vertex="1">
          <mxGeometry x="46" y="44" width="30" height="30" as="geometry" />
        </mxCell>
        <mxCell id="BS6h6t6-BCitYu4ugSEv-44" value="1&amp;nbsp; &amp;nbsp; &amp;nbsp; &amp;nbsp; *" style="text;html=1;align=center;verticalAlign=middle;resizable=0;points=[];autosize=1;strokeColor=none;fillColor=none;" parent="1" vertex="1">
          <mxGeometry x="185" y="136" width="60" height="30" as="geometry" />
        </mxCell>
        <mxCell id="BS6h6t6-BCitYu4ugSEv-45" value="*&amp;nbsp; &amp;nbsp; &amp;nbsp; &amp;nbsp; &amp;nbsp; 1" style="text;html=1;align=center;verticalAlign=middle;resizable=0;points=[];autosize=1;strokeColor=none;fillColor=none;" parent="1" vertex="1">
          <mxGeometry x="387" y="136" width="70" height="30" as="geometry" />
        </mxCell>
        <mxCell id="BS6h6t6-BCitYu4ugSEv-67" value="" style="endArrow=none;html=1;rounded=0;exitX=0.5;exitY=1;exitDx=0;exitDy=0;entryX=0.5;entryY=0;entryDx=0;entryDy=0;" parent="1" edge="1">
          <mxGeometry width="50" height="50" relative="1" as="geometry">
            <mxPoint x="314" y="827" as="sourcePoint" />
            <mxPoint x="314" y="827" as="targetPoint" />
          </mxGeometry>
        </mxCell>
        <mxCell id="BS6h6t6-BCitYu4ugSEv-75" value="Veículos" style="shape=table;startSize=30;container=1;collapsible=1;childLayout=tableLayout;fixedRows=1;rowLines=0;fontStyle=1;align=center;resizeLast=1;html=1;" parent="1" vertex="1">
          <mxGeometry x="28" y="600" width="157" height="120.00000000000023" as="geometry" />
        </mxCell>
        <mxCell id="BS6h6t6-BCitYu4ugSEv-76" value="" style="shape=tableRow;horizontal=0;startSize=0;swimlaneHead=0;swimlaneBody=0;fillColor=none;collapsible=0;dropTarget=0;points=[[0,0.5],[1,0.5]];portConstraint=eastwest;top=0;left=0;right=0;bottom=1;" parent="BS6h6t6-BCitYu4ugSEv-75" vertex="1">
          <mxGeometry y="30" width="157" height="30" as="geometry" />
        </mxCell>
        <mxCell id="BS6h6t6-BCitYu4ugSEv-77" value="PK" style="shape=partialRectangle;connectable=0;fillColor=none;top=0;left=0;bottom=0;right=0;fontStyle=1;overflow=hidden;whiteSpace=wrap;html=1;" parent="BS6h6t6-BCitYu4ugSEv-76" vertex="1">
          <mxGeometry width="30" height="30" as="geometry">
            <mxRectangle width="30" height="30" as="alternateBounds" />
          </mxGeometry>
        </mxCell>
        <mxCell id="BS6h6t6-BCitYu4ugSEv-78" value="número : Int" style="shape=partialRectangle;connectable=0;fillColor=none;top=0;left=0;bottom=0;right=0;align=left;spacingLeft=6;fontStyle=5;overflow=hidden;whiteSpace=wrap;html=1;" parent="BS6h6t6-BCitYu4ugSEv-76" vertex="1">
          <mxGeometry x="30" width="127" height="30" as="geometry">
            <mxRectangle width="127" height="30" as="alternateBounds" />
          </mxGeometry>
        </mxCell>
        <mxCell id="BS6h6t6-BCitYu4ugSEv-79" value="" style="shape=tableRow;horizontal=0;startSize=0;swimlaneHead=0;swimlaneBody=0;fillColor=none;collapsible=0;dropTarget=0;points=[[0,0.5],[1,0.5]];portConstraint=eastwest;top=0;left=0;right=0;bottom=0;" parent="BS6h6t6-BCitYu4ugSEv-75" vertex="1">
          <mxGeometry y="60" width="157" height="30" as="geometry" />
        </mxCell>
        <mxCell id="BS6h6t6-BCitYu4ugSEv-80" value="" style="shape=partialRectangle;connectable=0;fillColor=none;top=0;left=0;bottom=0;right=0;editable=1;overflow=hidden;whiteSpace=wrap;html=1;" parent="BS6h6t6-BCitYu4ugSEv-79" vertex="1">
          <mxGeometry width="30" height="30" as="geometry">
            <mxRectangle width="30" height="30" as="alternateBounds" />
          </mxGeometry>
        </mxCell>
        <mxCell id="BS6h6t6-BCitYu4ugSEv-81" value="tipo : String" style="shape=partialRectangle;connectable=0;fillColor=none;top=0;left=0;bottom=0;right=0;align=left;spacingLeft=6;overflow=hidden;whiteSpace=wrap;html=1;" parent="BS6h6t6-BCitYu4ugSEv-79" vertex="1">
          <mxGeometry x="30" width="127" height="30" as="geometry">
            <mxRectangle width="127" height="30" as="alternateBounds" />
          </mxGeometry>
        </mxCell>
        <mxCell id="BS6h6t6-BCitYu4ugSEv-82" value="" style="shape=tableRow;horizontal=0;startSize=0;swimlaneHead=0;swimlaneBody=0;fillColor=none;collapsible=0;dropTarget=0;points=[[0,0.5],[1,0.5]];portConstraint=eastwest;top=0;left=0;right=0;bottom=0;" parent="BS6h6t6-BCitYu4ugSEv-75" vertex="1">
          <mxGeometry y="90" width="157" height="30" as="geometry" />
        </mxCell>
        <mxCell id="BS6h6t6-BCitYu4ugSEv-83" value="" style="shape=partialRectangle;connectable=0;fillColor=none;top=0;left=0;bottom=0;right=0;editable=1;overflow=hidden;whiteSpace=wrap;html=1;" parent="BS6h6t6-BCitYu4ugSEv-82" vertex="1">
          <mxGeometry width="30" height="30" as="geometry">
            <mxRectangle width="30" height="30" as="alternateBounds" />
          </mxGeometry>
        </mxCell>
        <mxCell id="BS6h6t6-BCitYu4ugSEv-84" value="lotação : String" style="shape=partialRectangle;connectable=0;fillColor=none;top=0;left=0;bottom=0;right=0;align=left;spacingLeft=6;overflow=hidden;whiteSpace=wrap;html=1;" parent="BS6h6t6-BCitYu4ugSEv-82" vertex="1">
          <mxGeometry x="30" width="127" height="30" as="geometry">
            <mxRectangle width="127" height="30" as="alternateBounds" />
          </mxGeometry>
        </mxCell>
        <mxCell id="BS6h6t6-BCitYu4ugSEv-261" style="edgeStyle=orthogonalEdgeStyle;rounded=0;orthogonalLoop=1;jettySize=auto;html=1;exitX=0.5;exitY=1;exitDx=0;exitDy=0;entryX=0.5;entryY=0;entryDx=0;entryDy=0;" parent="1" source="BS6h6t6-BCitYu4ugSEv-101" target="BS6h6t6-BCitYu4ugSEv-165" edge="1">
          <mxGeometry relative="1" as="geometry" />
        </mxCell>
        <mxCell id="BS6h6t6-BCitYu4ugSEv-101" value="Viagens" style="shape=table;startSize=30;container=1;collapsible=1;childLayout=tableLayout;fixedRows=1;rowLines=0;fontStyle=1;align=center;resizeLast=1;html=1;whiteSpace=wrap;" parent="1" vertex="1">
          <mxGeometry x="227.5" y="570" width="186" height="150" as="geometry" />
        </mxCell>
        <mxCell id="BS6h6t6-BCitYu4ugSEv-263" value="" style="shape=tableRow;horizontal=0;startSize=0;swimlaneHead=0;swimlaneBody=0;fillColor=none;collapsible=0;dropTarget=0;points=[[0,0.5],[1,0.5]];portConstraint=eastwest;top=0;left=0;right=0;bottom=1;html=1;" parent="BS6h6t6-BCitYu4ugSEv-101" vertex="1">
          <mxGeometry y="30" width="186" height="30" as="geometry" />
        </mxCell>
        <mxCell id="BS6h6t6-BCitYu4ugSEv-264" value="PK" style="shape=partialRectangle;connectable=0;fillColor=none;top=0;left=0;bottom=0;right=0;fontStyle=1;overflow=hidden;html=1;whiteSpace=wrap;" parent="BS6h6t6-BCitYu4ugSEv-263" vertex="1">
          <mxGeometry width="52.5" height="30" as="geometry">
            <mxRectangle width="52.5" height="30" as="alternateBounds" />
          </mxGeometry>
        </mxCell>
        <mxCell id="BS6h6t6-BCitYu4ugSEv-265" value="horario_partida" style="shape=partialRectangle;connectable=0;fillColor=none;top=0;left=0;bottom=0;right=0;align=left;spacingLeft=6;fontStyle=5;overflow=hidden;html=1;whiteSpace=wrap;" parent="BS6h6t6-BCitYu4ugSEv-263" vertex="1">
          <mxGeometry x="52.5" width="133.5" height="30" as="geometry">
            <mxRectangle width="133.5" height="30" as="alternateBounds" />
          </mxGeometry>
        </mxCell>
        <mxCell id="BS6h6t6-BCitYu4ugSEv-105" value="" style="shape=tableRow;horizontal=0;startSize=0;swimlaneHead=0;swimlaneBody=0;fillColor=none;collapsible=0;dropTarget=0;points=[[0,0.5],[1,0.5]];portConstraint=eastwest;top=0;left=0;right=0;bottom=1;html=1;" parent="BS6h6t6-BCitYu4ugSEv-101" vertex="1">
          <mxGeometry y="60" width="186" height="30" as="geometry" />
        </mxCell>
        <mxCell id="BS6h6t6-BCitYu4ugSEv-106" value="PK, FK" style="shape=partialRectangle;connectable=0;fillColor=none;top=0;left=0;bottom=0;right=0;fontStyle=1;overflow=hidden;html=1;whiteSpace=wrap;" parent="BS6h6t6-BCitYu4ugSEv-105" vertex="1">
          <mxGeometry width="52.5" height="30" as="geometry">
            <mxRectangle width="52.5" height="30" as="alternateBounds" />
          </mxGeometry>
        </mxCell>
        <mxCell id="BS6h6t6-BCitYu4ugSEv-107" value="id_linha" style="shape=partialRectangle;connectable=0;fillColor=none;top=0;left=0;bottom=0;right=0;align=left;spacingLeft=6;fontStyle=5;overflow=hidden;html=1;whiteSpace=wrap;" parent="BS6h6t6-BCitYu4ugSEv-105" vertex="1">
          <mxGeometry x="52.5" width="133.5" height="30" as="geometry">
            <mxRectangle width="133.5" height="30" as="alternateBounds" />
          </mxGeometry>
        </mxCell>
        <mxCell id="BS6h6t6-BCitYu4ugSEv-250" value="" style="shape=tableRow;horizontal=0;startSize=0;swimlaneHead=0;swimlaneBody=0;fillColor=none;collapsible=0;dropTarget=0;points=[[0,0.5],[1,0.5]];portConstraint=eastwest;top=0;left=0;right=0;bottom=0;html=1;" parent="BS6h6t6-BCitYu4ugSEv-101" vertex="1">
          <mxGeometry y="90" width="186" height="30" as="geometry" />
        </mxCell>
        <mxCell id="BS6h6t6-BCitYu4ugSEv-251" value="FK" style="shape=partialRectangle;connectable=0;fillColor=none;top=0;left=0;bottom=0;right=0;editable=1;overflow=hidden;html=1;whiteSpace=wrap;" parent="BS6h6t6-BCitYu4ugSEv-250" vertex="1">
          <mxGeometry width="52.5" height="30" as="geometry">
            <mxRectangle width="52.5" height="30" as="alternateBounds" />
          </mxGeometry>
        </mxCell>
        <mxCell id="BS6h6t6-BCitYu4ugSEv-252" value="codigo_motorista" style="shape=partialRectangle;connectable=0;fillColor=none;top=0;left=0;bottom=0;right=0;align=left;spacingLeft=6;overflow=hidden;html=1;whiteSpace=wrap;" parent="BS6h6t6-BCitYu4ugSEv-250" vertex="1">
          <mxGeometry x="52.5" width="133.5" height="30" as="geometry">
            <mxRectangle width="133.5" height="30" as="alternateBounds" />
          </mxGeometry>
        </mxCell>
        <mxCell id="BS6h6t6-BCitYu4ugSEv-253" value="" style="shape=tableRow;horizontal=0;startSize=0;swimlaneHead=0;swimlaneBody=0;fillColor=none;collapsible=0;dropTarget=0;points=[[0,0.5],[1,0.5]];portConstraint=eastwest;top=0;left=0;right=0;bottom=0;html=1;" parent="BS6h6t6-BCitYu4ugSEv-101" vertex="1">
          <mxGeometry y="120" width="186" height="30" as="geometry" />
        </mxCell>
        <mxCell id="BS6h6t6-BCitYu4ugSEv-254" value="FK" style="shape=partialRectangle;connectable=0;fillColor=none;top=0;left=0;bottom=0;right=0;editable=1;overflow=hidden;html=1;whiteSpace=wrap;" parent="BS6h6t6-BCitYu4ugSEv-253" vertex="1">
          <mxGeometry width="52.5" height="30" as="geometry">
            <mxRectangle width="52.5" height="30" as="alternateBounds" />
          </mxGeometry>
        </mxCell>
        <mxCell id="BS6h6t6-BCitYu4ugSEv-255" value="numero_veiculo" style="shape=partialRectangle;connectable=0;fillColor=none;top=0;left=0;bottom=0;right=0;align=left;spacingLeft=6;overflow=hidden;html=1;whiteSpace=wrap;" parent="BS6h6t6-BCitYu4ugSEv-253" vertex="1">
          <mxGeometry x="52.5" width="133.5" height="30" as="geometry">
            <mxRectangle width="133.5" height="30" as="alternateBounds" />
          </mxGeometry>
        </mxCell>
        <mxCell id="BS6h6t6-BCitYu4ugSEv-139" value="Motoristas" style="shape=table;startSize=30;container=1;collapsible=1;childLayout=tableLayout;fixedRows=1;rowLines=0;fontStyle=1;align=center;resizeLast=1;html=1;" parent="1" vertex="1">
          <mxGeometry x="459" y="600" width="180" height="120" as="geometry" />
        </mxCell>
        <mxCell id="BS6h6t6-BCitYu4ugSEv-140" value="" style="shape=tableRow;horizontal=0;startSize=0;swimlaneHead=0;swimlaneBody=0;fillColor=none;collapsible=0;dropTarget=0;points=[[0,0.5],[1,0.5]];portConstraint=eastwest;top=0;left=0;right=0;bottom=1;" parent="BS6h6t6-BCitYu4ugSEv-139" vertex="1">
          <mxGeometry y="30" width="180" height="30" as="geometry" />
        </mxCell>
        <mxCell id="BS6h6t6-BCitYu4ugSEv-141" value="PK" style="shape=partialRectangle;connectable=0;fillColor=none;top=0;left=0;bottom=0;right=0;fontStyle=1;overflow=hidden;whiteSpace=wrap;html=1;" parent="BS6h6t6-BCitYu4ugSEv-140" vertex="1">
          <mxGeometry width="30" height="30" as="geometry">
            <mxRectangle width="30" height="30" as="alternateBounds" />
          </mxGeometry>
        </mxCell>
        <mxCell id="BS6h6t6-BCitYu4ugSEv-142" value="codigo" style="shape=partialRectangle;connectable=0;fillColor=none;top=0;left=0;bottom=0;right=0;align=left;spacingLeft=6;fontStyle=5;overflow=hidden;whiteSpace=wrap;html=1;" parent="BS6h6t6-BCitYu4ugSEv-140" vertex="1">
          <mxGeometry x="30" width="150" height="30" as="geometry">
            <mxRectangle width="150" height="30" as="alternateBounds" />
          </mxGeometry>
        </mxCell>
        <mxCell id="BS6h6t6-BCitYu4ugSEv-143" value="" style="shape=tableRow;horizontal=0;startSize=0;swimlaneHead=0;swimlaneBody=0;fillColor=none;collapsible=0;dropTarget=0;points=[[0,0.5],[1,0.5]];portConstraint=eastwest;top=0;left=0;right=0;bottom=0;" parent="BS6h6t6-BCitYu4ugSEv-139" vertex="1">
          <mxGeometry y="60" width="180" height="30" as="geometry" />
        </mxCell>
        <mxCell id="BS6h6t6-BCitYu4ugSEv-144" value="" style="shape=partialRectangle;connectable=0;fillColor=none;top=0;left=0;bottom=0;right=0;editable=1;overflow=hidden;whiteSpace=wrap;html=1;" parent="BS6h6t6-BCitYu4ugSEv-143" vertex="1">
          <mxGeometry width="30" height="30" as="geometry">
            <mxRectangle width="30" height="30" as="alternateBounds" />
          </mxGeometry>
        </mxCell>
        <mxCell id="BS6h6t6-BCitYu4ugSEv-145" value="nome" style="shape=partialRectangle;connectable=0;fillColor=none;top=0;left=0;bottom=0;right=0;align=left;spacingLeft=6;overflow=hidden;whiteSpace=wrap;html=1;" parent="BS6h6t6-BCitYu4ugSEv-143" vertex="1">
          <mxGeometry x="30" width="150" height="30" as="geometry">
            <mxRectangle width="150" height="30" as="alternateBounds" />
          </mxGeometry>
        </mxCell>
        <mxCell id="BS6h6t6-BCitYu4ugSEv-146" value="" style="shape=tableRow;horizontal=0;startSize=0;swimlaneHead=0;swimlaneBody=0;fillColor=none;collapsible=0;dropTarget=0;points=[[0,0.5],[1,0.5]];portConstraint=eastwest;top=0;left=0;right=0;bottom=0;" parent="BS6h6t6-BCitYu4ugSEv-139" vertex="1">
          <mxGeometry y="90" width="180" height="30" as="geometry" />
        </mxCell>
        <mxCell id="BS6h6t6-BCitYu4ugSEv-147" value="" style="shape=partialRectangle;connectable=0;fillColor=none;top=0;left=0;bottom=0;right=0;editable=1;overflow=hidden;whiteSpace=wrap;html=1;" parent="BS6h6t6-BCitYu4ugSEv-146" vertex="1">
          <mxGeometry width="30" height="30" as="geometry">
            <mxRectangle width="30" height="30" as="alternateBounds" />
          </mxGeometry>
        </mxCell>
        <mxCell id="BS6h6t6-BCitYu4ugSEv-148" value="categoria" style="shape=partialRectangle;connectable=0;fillColor=none;top=0;left=0;bottom=0;right=0;align=left;spacingLeft=6;overflow=hidden;whiteSpace=wrap;html=1;" parent="BS6h6t6-BCitYu4ugSEv-146" vertex="1">
          <mxGeometry x="30" width="150" height="30" as="geometry">
            <mxRectangle width="150" height="30" as="alternateBounds" />
          </mxGeometry>
        </mxCell>
        <mxCell id="BS6h6t6-BCitYu4ugSEv-165" value="Linhas" style="shape=table;startSize=30;container=1;collapsible=1;childLayout=tableLayout;fixedRows=1;rowLines=0;fontStyle=1;align=center;resizeLast=1;html=1;whiteSpace=wrap;" parent="1" vertex="1">
          <mxGeometry x="245" y="814" width="151" height="121" as="geometry" />
        </mxCell>
        <mxCell id="BS6h6t6-BCitYu4ugSEv-169" value="" style="shape=tableRow;horizontal=0;startSize=0;swimlaneHead=0;swimlaneBody=0;fillColor=none;collapsible=0;dropTarget=0;points=[[0,0.5],[1,0.5]];portConstraint=eastwest;top=0;left=0;right=0;bottom=1;html=1;" parent="BS6h6t6-BCitYu4ugSEv-165" vertex="1">
          <mxGeometry y="30" width="151" height="30" as="geometry" />
        </mxCell>
        <mxCell id="BS6h6t6-BCitYu4ugSEv-170" value="PK" style="shape=partialRectangle;connectable=0;fillColor=none;top=0;left=0;bottom=0;right=0;fontStyle=1;overflow=hidden;html=1;whiteSpace=wrap;" parent="BS6h6t6-BCitYu4ugSEv-169" vertex="1">
          <mxGeometry width="37" height="30" as="geometry">
            <mxRectangle width="37" height="30" as="alternateBounds" />
          </mxGeometry>
        </mxCell>
        <mxCell id="BS6h6t6-BCitYu4ugSEv-171" value="id_linha" style="shape=partialRectangle;connectable=0;fillColor=none;top=0;left=0;bottom=0;right=0;align=left;spacingLeft=6;fontStyle=5;overflow=hidden;html=1;whiteSpace=wrap;" parent="BS6h6t6-BCitYu4ugSEv-169" vertex="1">
          <mxGeometry x="37" width="114" height="30" as="geometry">
            <mxRectangle width="114" height="30" as="alternateBounds" />
          </mxGeometry>
        </mxCell>
        <mxCell id="BS6h6t6-BCitYu4ugSEv-221" value="" style="shape=tableRow;horizontal=0;startSize=0;swimlaneHead=0;swimlaneBody=0;fillColor=none;collapsible=0;dropTarget=0;points=[[0,0.5],[1,0.5]];portConstraint=eastwest;top=0;left=0;right=0;bottom=0;html=1;" parent="BS6h6t6-BCitYu4ugSEv-165" vertex="1">
          <mxGeometry y="60" width="151" height="30" as="geometry" />
        </mxCell>
        <mxCell id="BS6h6t6-BCitYu4ugSEv-222" value="" style="shape=partialRectangle;connectable=0;fillColor=none;top=0;left=0;bottom=0;right=0;fontStyle=1;overflow=hidden;html=1;whiteSpace=wrap;" parent="BS6h6t6-BCitYu4ugSEv-221" vertex="1">
          <mxGeometry width="37" height="30" as="geometry">
            <mxRectangle width="37" height="30" as="alternateBounds" />
          </mxGeometry>
        </mxCell>
        <mxCell id="BS6h6t6-BCitYu4ugSEv-223" value="" style="shape=partialRectangle;connectable=0;fillColor=none;top=0;left=0;bottom=0;right=0;align=left;spacingLeft=6;fontStyle=5;overflow=hidden;html=1;whiteSpace=wrap;" parent="BS6h6t6-BCitYu4ugSEv-221" vertex="1">
          <mxGeometry x="37" width="114" height="30" as="geometry">
            <mxRectangle width="114" height="30" as="alternateBounds" />
          </mxGeometry>
        </mxCell>
        <mxCell id="BS6h6t6-BCitYu4ugSEv-234" value="" style="shape=tableRow;horizontal=0;startSize=0;swimlaneHead=0;swimlaneBody=0;fillColor=none;collapsible=0;dropTarget=0;points=[[0,0.5],[1,0.5]];portConstraint=eastwest;top=0;left=0;right=0;bottom=1;html=1;" parent="BS6h6t6-BCitYu4ugSEv-165" vertex="1">
          <mxGeometry y="90" width="151" height="30" as="geometry" />
        </mxCell>
        <mxCell id="BS6h6t6-BCitYu4ugSEv-235" value="" style="shape=partialRectangle;connectable=0;fillColor=none;top=0;left=0;bottom=0;right=0;fontStyle=1;overflow=hidden;html=1;whiteSpace=wrap;" parent="BS6h6t6-BCitYu4ugSEv-234" vertex="1">
          <mxGeometry width="37" height="30" as="geometry">
            <mxRectangle width="37" height="30" as="alternateBounds" />
          </mxGeometry>
        </mxCell>
        <mxCell id="BS6h6t6-BCitYu4ugSEv-236" value="" style="shape=partialRectangle;connectable=0;fillColor=none;top=0;left=0;bottom=0;right=0;align=left;spacingLeft=6;fontStyle=5;overflow=hidden;html=1;whiteSpace=wrap;" parent="BS6h6t6-BCitYu4ugSEv-234" vertex="1">
          <mxGeometry x="37" width="114" height="30" as="geometry">
            <mxRectangle width="114" height="30" as="alternateBounds" />
          </mxGeometry>
        </mxCell>
        <mxCell id="BS6h6t6-BCitYu4ugSEv-178" value="Paragens" style="shape=table;startSize=30;container=1;collapsible=1;childLayout=tableLayout;fixedRows=1;rowLines=0;fontStyle=1;align=center;resizeLast=1;html=1;" parent="1" vertex="1">
          <mxGeometry x="460" y="824" width="128" height="120" as="geometry" />
        </mxCell>
        <mxCell id="BS6h6t6-BCitYu4ugSEv-179" value="" style="shape=tableRow;horizontal=0;startSize=0;swimlaneHead=0;swimlaneBody=0;fillColor=none;collapsible=0;dropTarget=0;points=[[0,0.5],[1,0.5]];portConstraint=eastwest;top=0;left=0;right=0;bottom=1;" parent="BS6h6t6-BCitYu4ugSEv-178" vertex="1">
          <mxGeometry y="30" width="128" height="30" as="geometry" />
        </mxCell>
        <mxCell id="BS6h6t6-BCitYu4ugSEv-180" value="PK" style="shape=partialRectangle;connectable=0;fillColor=none;top=0;left=0;bottom=0;right=0;fontStyle=1;overflow=hidden;whiteSpace=wrap;html=1;" parent="BS6h6t6-BCitYu4ugSEv-179" vertex="1">
          <mxGeometry width="30" height="30" as="geometry">
            <mxRectangle width="30" height="30" as="alternateBounds" />
          </mxGeometry>
        </mxCell>
        <mxCell id="BS6h6t6-BCitYu4ugSEv-181" value="id_paragem" style="shape=partialRectangle;connectable=0;fillColor=none;top=0;left=0;bottom=0;right=0;align=left;spacingLeft=6;fontStyle=5;overflow=hidden;whiteSpace=wrap;html=1;" parent="BS6h6t6-BCitYu4ugSEv-179" vertex="1">
          <mxGeometry x="30" width="98" height="30" as="geometry">
            <mxRectangle width="98" height="30" as="alternateBounds" />
          </mxGeometry>
        </mxCell>
        <mxCell id="BS6h6t6-BCitYu4ugSEv-182" value="" style="shape=tableRow;horizontal=0;startSize=0;swimlaneHead=0;swimlaneBody=0;fillColor=none;collapsible=0;dropTarget=0;points=[[0,0.5],[1,0.5]];portConstraint=eastwest;top=0;left=0;right=0;bottom=0;" parent="BS6h6t6-BCitYu4ugSEv-178" vertex="1">
          <mxGeometry y="60" width="128" height="30" as="geometry" />
        </mxCell>
        <mxCell id="BS6h6t6-BCitYu4ugSEv-183" value="" style="shape=partialRectangle;connectable=0;fillColor=none;top=0;left=0;bottom=0;right=0;editable=1;overflow=hidden;whiteSpace=wrap;html=1;" parent="BS6h6t6-BCitYu4ugSEv-182" vertex="1">
          <mxGeometry width="30" height="30" as="geometry">
            <mxRectangle width="30" height="30" as="alternateBounds" />
          </mxGeometry>
        </mxCell>
        <mxCell id="BS6h6t6-BCitYu4ugSEv-184" value="nome" style="shape=partialRectangle;connectable=0;fillColor=none;top=0;left=0;bottom=0;right=0;align=left;spacingLeft=6;overflow=hidden;whiteSpace=wrap;html=1;" parent="BS6h6t6-BCitYu4ugSEv-182" vertex="1">
          <mxGeometry x="30" width="98" height="30" as="geometry">
            <mxRectangle width="98" height="30" as="alternateBounds" />
          </mxGeometry>
        </mxCell>
        <mxCell id="BS6h6t6-BCitYu4ugSEv-218" value="" style="shape=tableRow;horizontal=0;startSize=0;swimlaneHead=0;swimlaneBody=0;fillColor=none;collapsible=0;dropTarget=0;points=[[0,0.5],[1,0.5]];portConstraint=eastwest;top=0;left=0;right=0;bottom=0;" parent="BS6h6t6-BCitYu4ugSEv-178" vertex="1">
          <mxGeometry y="90" width="128" height="30" as="geometry" />
        </mxCell>
        <mxCell id="BS6h6t6-BCitYu4ugSEv-219" value="FK" style="shape=partialRectangle;connectable=0;fillColor=none;top=0;left=0;bottom=0;right=0;editable=1;overflow=hidden;whiteSpace=wrap;html=1;" parent="BS6h6t6-BCitYu4ugSEv-218" vertex="1">
          <mxGeometry width="30" height="30" as="geometry">
            <mxRectangle width="30" height="30" as="alternateBounds" />
          </mxGeometry>
        </mxCell>
        <mxCell id="BS6h6t6-BCitYu4ugSEv-220" value="id_zona" style="shape=partialRectangle;connectable=0;fillColor=none;top=0;left=0;bottom=0;right=0;align=left;spacingLeft=6;overflow=hidden;whiteSpace=wrap;html=1;" parent="BS6h6t6-BCitYu4ugSEv-218" vertex="1">
          <mxGeometry x="30" width="98" height="30" as="geometry">
            <mxRectangle width="98" height="30" as="alternateBounds" />
          </mxGeometry>
        </mxCell>
        <mxCell id="BS6h6t6-BCitYu4ugSEv-262" style="edgeStyle=orthogonalEdgeStyle;rounded=0;orthogonalLoop=1;jettySize=auto;html=1;exitX=0;exitY=0.5;exitDx=0;exitDy=0;entryX=0.5;entryY=1;entryDx=0;entryDy=0;" parent="1" source="BS6h6t6-BCitYu4ugSEv-191" target="BS6h6t6-BCitYu4ugSEv-165" edge="1">
          <mxGeometry relative="1" as="geometry">
            <mxPoint x="320" y="950" as="targetPoint" />
          </mxGeometry>
        </mxCell>
        <mxCell id="BS6h6t6-BCitYu4ugSEv-191" value="Passa_Por" style="shape=table;startSize=30;container=1;collapsible=1;childLayout=tableLayout;fixedRows=1;rowLines=0;fontStyle=1;align=center;resizeLast=1;html=1;whiteSpace=wrap;" parent="1" vertex="1">
          <mxGeometry x="349" y="990" width="150" height="120" as="geometry" />
        </mxCell>
        <mxCell id="BS6h6t6-BCitYu4ugSEv-192" value="" style="shape=tableRow;horizontal=0;startSize=0;swimlaneHead=0;swimlaneBody=0;fillColor=none;collapsible=0;dropTarget=0;points=[[0,0.5],[1,0.5]];portConstraint=eastwest;top=0;left=0;right=0;bottom=0;html=1;" parent="BS6h6t6-BCitYu4ugSEv-191" vertex="1">
          <mxGeometry y="30" width="150" height="30" as="geometry" />
        </mxCell>
        <mxCell id="BS6h6t6-BCitYu4ugSEv-193" value="PK,FK1" style="shape=partialRectangle;connectable=0;fillColor=none;top=0;left=0;bottom=0;right=0;fontStyle=1;overflow=hidden;html=1;whiteSpace=wrap;" parent="BS6h6t6-BCitYu4ugSEv-192" vertex="1">
          <mxGeometry width="60" height="30" as="geometry">
            <mxRectangle width="60" height="30" as="alternateBounds" />
          </mxGeometry>
        </mxCell>
        <mxCell id="BS6h6t6-BCitYu4ugSEv-194" value="id_linha" style="shape=partialRectangle;connectable=0;fillColor=none;top=0;left=0;bottom=0;right=0;align=left;spacingLeft=6;fontStyle=5;overflow=hidden;html=1;whiteSpace=wrap;" parent="BS6h6t6-BCitYu4ugSEv-192" vertex="1">
          <mxGeometry x="60" width="90" height="30" as="geometry">
            <mxRectangle width="90" height="30" as="alternateBounds" />
          </mxGeometry>
        </mxCell>
        <mxCell id="BS6h6t6-BCitYu4ugSEv-195" value="" style="shape=tableRow;horizontal=0;startSize=0;swimlaneHead=0;swimlaneBody=0;fillColor=none;collapsible=0;dropTarget=0;points=[[0,0.5],[1,0.5]];portConstraint=eastwest;top=0;left=0;right=0;bottom=1;html=1;" parent="BS6h6t6-BCitYu4ugSEv-191" vertex="1">
          <mxGeometry y="60" width="150" height="30" as="geometry" />
        </mxCell>
        <mxCell id="BS6h6t6-BCitYu4ugSEv-196" value="PK,FK2" style="shape=partialRectangle;connectable=0;fillColor=none;top=0;left=0;bottom=0;right=0;fontStyle=1;overflow=hidden;html=1;whiteSpace=wrap;" parent="BS6h6t6-BCitYu4ugSEv-195" vertex="1">
          <mxGeometry width="60" height="30" as="geometry">
            <mxRectangle width="60" height="30" as="alternateBounds" />
          </mxGeometry>
        </mxCell>
        <mxCell id="BS6h6t6-BCitYu4ugSEv-197" value="id_parada" style="shape=partialRectangle;connectable=0;fillColor=none;top=0;left=0;bottom=0;right=0;align=left;spacingLeft=6;fontStyle=5;overflow=hidden;html=1;whiteSpace=wrap;" parent="BS6h6t6-BCitYu4ugSEv-195" vertex="1">
          <mxGeometry x="60" width="90" height="30" as="geometry">
            <mxRectangle width="90" height="30" as="alternateBounds" />
          </mxGeometry>
        </mxCell>
        <mxCell id="BS6h6t6-BCitYu4ugSEv-198" value="" style="shape=tableRow;horizontal=0;startSize=0;swimlaneHead=0;swimlaneBody=0;fillColor=none;collapsible=0;dropTarget=0;points=[[0,0.5],[1,0.5]];portConstraint=eastwest;top=0;left=0;right=0;bottom=0;html=1;" parent="BS6h6t6-BCitYu4ugSEv-191" vertex="1">
          <mxGeometry y="90" width="150" height="30" as="geometry" />
        </mxCell>
        <mxCell id="BS6h6t6-BCitYu4ugSEv-199" value="" style="shape=partialRectangle;connectable=0;fillColor=none;top=0;left=0;bottom=0;right=0;editable=1;overflow=hidden;html=1;whiteSpace=wrap;" parent="BS6h6t6-BCitYu4ugSEv-198" vertex="1">
          <mxGeometry width="60" height="30" as="geometry">
            <mxRectangle width="60" height="30" as="alternateBounds" />
          </mxGeometry>
        </mxCell>
        <mxCell id="BS6h6t6-BCitYu4ugSEv-200" value="tempo" style="shape=partialRectangle;connectable=0;fillColor=none;top=0;left=0;bottom=0;right=0;align=left;spacingLeft=6;overflow=hidden;html=1;whiteSpace=wrap;" parent="BS6h6t6-BCitYu4ugSEv-198" vertex="1">
          <mxGeometry x="60" width="90" height="30" as="geometry">
            <mxRectangle width="90" height="30" as="alternateBounds" />
          </mxGeometry>
        </mxCell>
        <mxCell id="BS6h6t6-BCitYu4ugSEv-204" value="Zonas" style="shape=table;startSize=30;container=1;collapsible=1;childLayout=tableLayout;fixedRows=1;rowLines=0;fontStyle=1;align=center;resizeLast=1;html=1;" parent="1" vertex="1">
          <mxGeometry x="669" y="828" width="130" height="90" as="geometry" />
        </mxCell>
        <mxCell id="BS6h6t6-BCitYu4ugSEv-205" value="" style="shape=tableRow;horizontal=0;startSize=0;swimlaneHead=0;swimlaneBody=0;fillColor=none;collapsible=0;dropTarget=0;points=[[0,0.5],[1,0.5]];portConstraint=eastwest;top=0;left=0;right=0;bottom=1;" parent="BS6h6t6-BCitYu4ugSEv-204" vertex="1">
          <mxGeometry y="30" width="130" height="30" as="geometry" />
        </mxCell>
        <mxCell id="BS6h6t6-BCitYu4ugSEv-206" value="PK" style="shape=partialRectangle;connectable=0;fillColor=none;top=0;left=0;bottom=0;right=0;fontStyle=1;overflow=hidden;whiteSpace=wrap;html=1;" parent="BS6h6t6-BCitYu4ugSEv-205" vertex="1">
          <mxGeometry width="30" height="30" as="geometry">
            <mxRectangle width="30" height="30" as="alternateBounds" />
          </mxGeometry>
        </mxCell>
        <mxCell id="BS6h6t6-BCitYu4ugSEv-207" value="id_zona" style="shape=partialRectangle;connectable=0;fillColor=none;top=0;left=0;bottom=0;right=0;align=left;spacingLeft=6;fontStyle=5;overflow=hidden;whiteSpace=wrap;html=1;" parent="BS6h6t6-BCitYu4ugSEv-205" vertex="1">
          <mxGeometry x="30" width="100" height="30" as="geometry">
            <mxRectangle width="100" height="30" as="alternateBounds" />
          </mxGeometry>
        </mxCell>
        <mxCell id="BS6h6t6-BCitYu4ugSEv-208" value="" style="shape=tableRow;horizontal=0;startSize=0;swimlaneHead=0;swimlaneBody=0;fillColor=none;collapsible=0;dropTarget=0;points=[[0,0.5],[1,0.5]];portConstraint=eastwest;top=0;left=0;right=0;bottom=0;" parent="BS6h6t6-BCitYu4ugSEv-204" vertex="1">
          <mxGeometry y="60" width="130" height="30" as="geometry" />
        </mxCell>
        <mxCell id="BS6h6t6-BCitYu4ugSEv-209" value="" style="shape=partialRectangle;connectable=0;fillColor=none;top=0;left=0;bottom=0;right=0;editable=1;overflow=hidden;whiteSpace=wrap;html=1;" parent="BS6h6t6-BCitYu4ugSEv-208" vertex="1">
          <mxGeometry width="30" height="30" as="geometry">
            <mxRectangle width="30" height="30" as="alternateBounds" />
          </mxGeometry>
        </mxCell>
        <mxCell id="BS6h6t6-BCitYu4ugSEv-210" value="nome : String" style="shape=partialRectangle;connectable=0;fillColor=none;top=0;left=0;bottom=0;right=0;align=left;spacingLeft=6;overflow=hidden;whiteSpace=wrap;html=1;" parent="BS6h6t6-BCitYu4ugSEv-208" vertex="1">
          <mxGeometry x="30" width="100" height="30" as="geometry">
            <mxRectangle width="100" height="30" as="alternateBounds" />
          </mxGeometry>
        </mxCell>
        <mxCell id="BS6h6t6-BCitYu4ugSEv-259" style="edgeStyle=orthogonalEdgeStyle;rounded=0;orthogonalLoop=1;jettySize=auto;html=1;exitX=0;exitY=0.5;exitDx=0;exitDy=0;entryX=1;entryY=0.5;entryDx=0;entryDy=0;" parent="1" source="BS6h6t6-BCitYu4ugSEv-250" target="BS6h6t6-BCitYu4ugSEv-79" edge="1">
          <mxGeometry relative="1" as="geometry" />
        </mxCell>
        <mxCell id="BS6h6t6-BCitYu4ugSEv-260" style="edgeStyle=orthogonalEdgeStyle;rounded=0;orthogonalLoop=1;jettySize=auto;html=1;exitX=1;exitY=0.5;exitDx=0;exitDy=0;entryX=0;entryY=0.5;entryDx=0;entryDy=0;" parent="1" source="BS6h6t6-BCitYu4ugSEv-250" target="BS6h6t6-BCitYu4ugSEv-143" edge="1">
          <mxGeometry relative="1" as="geometry" />
        </mxCell>
        <mxCell id="BS6h6t6-BCitYu4ugSEv-266" style="edgeStyle=orthogonalEdgeStyle;rounded=0;orthogonalLoop=1;jettySize=auto;html=1;exitX=1;exitY=1.017;exitDx=0;exitDy=0;exitPerimeter=0;" parent="1" source="BS6h6t6-BCitYu4ugSEv-192" edge="1">
          <mxGeometry relative="1" as="geometry">
            <mxPoint x="530" y="950" as="targetPoint" />
            <Array as="points">
              <mxPoint x="530" y="1051" />
            </Array>
          </mxGeometry>
        </mxCell>
        <mxCell id="BS6h6t6-BCitYu4ugSEv-268" style="edgeStyle=orthogonalEdgeStyle;rounded=0;orthogonalLoop=1;jettySize=auto;html=1;exitX=1;exitY=0.5;exitDx=0;exitDy=0;entryX=0.003;entryY=0.341;entryDx=0;entryDy=0;entryPerimeter=0;" parent="1" source="BS6h6t6-BCitYu4ugSEv-182" target="BS6h6t6-BCitYu4ugSEv-208" edge="1">
          <mxGeometry relative="1" as="geometry" />
        </mxCell>
        <mxCell id="BS6h6t6-BCitYu4ugSEv-269" value="a)" style="text;html=1;align=center;verticalAlign=middle;resizable=0;points=[];autosize=1;strokeColor=none;fillColor=none;" parent="1" vertex="1">
          <mxGeometry x="46" y="540" width="30" height="30" as="geometry" />
        </mxCell>
        <mxCell id="BS6h6t6-BCitYu4ugSEv-270" value="&lt;span style=&quot;color: rgb(0, 0, 0); font-family: Helvetica; font-size: 12px; font-style: normal; font-variant-ligatures: normal; font-variant-caps: normal; font-weight: 400; letter-spacing: normal; orphans: 2; text-align: left; text-indent: 0px; text-transform: none; widows: 2; word-spacing: 0px; -webkit-text-stroke-width: 0px; white-space: normal; background-color: rgb(251, 251, 251); text-decoration-thickness: initial; text-decoration-style: initial; text-decoration-color: initial; display: inline !important; float: none;&quot;&gt;numero&lt;/span&gt;" style="text;whiteSpace=wrap;html=1;" parent="1" vertex="1">
          <mxGeometry x="288" y="876" width="60" height="40" as="geometry" />
        </mxCell>
        <mxCell id="BS6h6t6-BCitYu4ugSEv-271" value="&lt;span style=&quot;color: rgb(0, 0, 0); font-family: Helvetica; font-size: 12px; font-style: normal; font-variant-ligatures: normal; font-variant-caps: normal; font-weight: 400; letter-spacing: normal; orphans: 2; text-align: left; text-indent: 0px; text-transform: none; widows: 2; word-spacing: 0px; -webkit-text-stroke-width: 0px; white-space: normal; background-color: rgb(251, 251, 251); text-decoration-thickness: initial; text-decoration-style: initial; text-decoration-color: initial; display: inline !important; float: none;&quot;&gt;sentido&lt;/span&gt;" style="text;whiteSpace=wrap;html=1;" parent="1" vertex="1">
          <mxGeometry x="289" y="903" width="60" height="40" as="geometry" />
        </mxCell>
      </root>
    </mxGraphModel>
  </diagram>
  <diagram id="n9WkpW5-HL_PoCo-sqTs" name="Autoestradas">
    <mxGraphModel dx="2064" dy="1014" grid="1" gridSize="10" guides="1" tooltips="1" connect="1" arrows="1" fold="1" page="1" pageScale="1" pageWidth="827" pageHeight="1169" math="0" shadow="0">
      <root>
        <mxCell id="0" />
        <mxCell id="1" parent="0" />
        <mxCell id="Sv_1La0PYOxw9VYuFhhq-1" value="Autoestrada" style="swimlane;fontStyle=0;childLayout=stackLayout;horizontal=1;startSize=26;horizontalStack=0;resizeParent=1;resizeParentMax=0;resizeLast=0;collapsible=1;marginBottom=0;align=center;fontSize=14;" parent="1" vertex="1">
          <mxGeometry x="238" y="126" width="160" height="116" as="geometry" />
        </mxCell>
        <mxCell id="Sv_1La0PYOxw9VYuFhhq-2" value="Numero" style="text;strokeColor=none;fillColor=none;spacingLeft=4;spacingRight=4;overflow=hidden;rotatable=0;points=[[0,0.5],[1,0.5]];portConstraint=eastwest;fontSize=12;whiteSpace=wrap;html=1;" parent="Sv_1La0PYOxw9VYuFhhq-1" vertex="1">
          <mxGeometry y="26" width="160" height="30" as="geometry" />
        </mxCell>
        <mxCell id="Sv_1La0PYOxw9VYuFhhq-4" value="Nome" style="text;strokeColor=none;fillColor=none;spacingLeft=4;spacingRight=4;overflow=hidden;rotatable=0;points=[[0,0.5],[1,0.5]];portConstraint=eastwest;fontSize=12;whiteSpace=wrap;html=1;" parent="Sv_1La0PYOxw9VYuFhhq-1" vertex="1">
          <mxGeometry y="56" width="160" height="30" as="geometry" />
        </mxCell>
        <mxCell id="Sv_1La0PYOxw9VYuFhhq-3" value="Extensão" style="text;strokeColor=none;fillColor=none;spacingLeft=4;spacingRight=4;overflow=hidden;rotatable=0;points=[[0,0.5],[1,0.5]];portConstraint=eastwest;fontSize=12;whiteSpace=wrap;html=1;" parent="Sv_1La0PYOxw9VYuFhhq-1" vertex="1">
          <mxGeometry y="86" width="160" height="30" as="geometry" />
        </mxCell>
        <mxCell id="Sv_1La0PYOxw9VYuFhhq-5" value="Barreiras" style="swimlane;fontStyle=0;childLayout=stackLayout;horizontal=1;startSize=26;horizontalStack=0;resizeParent=1;resizeParentMax=0;resizeLast=0;collapsible=1;marginBottom=0;align=center;fontSize=14;" parent="1" vertex="1">
          <mxGeometry x="238" y="326" width="160" height="86" as="geometry" />
        </mxCell>
        <mxCell id="Sv_1La0PYOxw9VYuFhhq-6" value="Numero" style="text;strokeColor=none;fillColor=none;spacingLeft=4;spacingRight=4;overflow=hidden;rotatable=0;points=[[0,0.5],[1,0.5]];portConstraint=eastwest;fontSize=12;whiteSpace=wrap;html=1;" parent="Sv_1La0PYOxw9VYuFhhq-5" vertex="1">
          <mxGeometry y="26" width="160" height="30" as="geometry" />
        </mxCell>
        <mxCell id="Sv_1La0PYOxw9VYuFhhq-7" value="Local" style="text;strokeColor=none;fillColor=none;spacingLeft=4;spacingRight=4;overflow=hidden;rotatable=0;points=[[0,0.5],[1,0.5]];portConstraint=eastwest;fontSize=12;whiteSpace=wrap;html=1;" parent="Sv_1La0PYOxw9VYuFhhq-5" vertex="1">
          <mxGeometry y="56" width="160" height="30" as="geometry" />
        </mxCell>
        <mxCell id="Sv_1La0PYOxw9VYuFhhq-9" value="Portagem" style="swimlane;fontStyle=0;childLayout=stackLayout;horizontal=1;startSize=26;horizontalStack=0;resizeParent=1;resizeParentMax=0;resizeLast=0;collapsible=1;marginBottom=0;align=center;fontSize=14;" parent="1" vertex="1">
          <mxGeometry x="494" y="636" width="160" height="116" as="geometry" />
        </mxCell>
        <mxCell id="Sv_1La0PYOxw9VYuFhhq-10" value="dia" style="text;strokeColor=none;fillColor=none;spacingLeft=4;spacingRight=4;overflow=hidden;rotatable=0;points=[[0,0.5],[1,0.5]];portConstraint=eastwest;fontSize=12;whiteSpace=wrap;html=1;" parent="Sv_1La0PYOxw9VYuFhhq-9" vertex="1">
          <mxGeometry y="26" width="160" height="30" as="geometry" />
        </mxCell>
        <mxCell id="Sv_1La0PYOxw9VYuFhhq-11" value="hora" style="text;strokeColor=none;fillColor=none;spacingLeft=4;spacingRight=4;overflow=hidden;rotatable=0;points=[[0,0.5],[1,0.5]];portConstraint=eastwest;fontSize=12;whiteSpace=wrap;html=1;" parent="Sv_1La0PYOxw9VYuFhhq-9" vertex="1">
          <mxGeometry y="56" width="160" height="30" as="geometry" />
        </mxCell>
        <mxCell id="hZIp5Htw1J5-9rwUbfWt-27" value="valor" style="text;strokeColor=none;fillColor=none;spacingLeft=4;spacingRight=4;overflow=hidden;rotatable=0;points=[[0,0.5],[1,0.5]];portConstraint=eastwest;fontSize=12;whiteSpace=wrap;html=1;" vertex="1" parent="Sv_1La0PYOxw9VYuFhhq-9">
          <mxGeometry y="86" width="160" height="30" as="geometry" />
        </mxCell>
        <mxCell id="Sv_1La0PYOxw9VYuFhhq-12" value="Veiculo" style="swimlane;fontStyle=0;childLayout=stackLayout;horizontal=1;startSize=26;horizontalStack=0;resizeParent=1;resizeParentMax=0;resizeLast=0;collapsible=1;marginBottom=0;align=center;fontSize=14;" parent="1" vertex="1">
          <mxGeometry x="241" y="666" width="160" height="86" as="geometry" />
        </mxCell>
        <mxCell id="Sv_1La0PYOxw9VYuFhhq-17" value="matricula" style="text;strokeColor=none;fillColor=none;spacingLeft=4;spacingRight=4;overflow=hidden;rotatable=0;points=[[0,0.5],[1,0.5]];portConstraint=eastwest;fontSize=12;whiteSpace=wrap;html=1;" parent="Sv_1La0PYOxw9VYuFhhq-12" vertex="1">
          <mxGeometry y="26" width="160" height="30" as="geometry" />
        </mxCell>
        <mxCell id="Sv_1La0PYOxw9VYuFhhq-18" value="marca" style="text;strokeColor=none;fillColor=none;spacingLeft=4;spacingRight=4;overflow=hidden;rotatable=0;points=[[0,0.5],[1,0.5]];portConstraint=eastwest;fontSize=12;whiteSpace=wrap;html=1;" parent="Sv_1La0PYOxw9VYuFhhq-12" vertex="1">
          <mxGeometry y="56" width="160" height="30" as="geometry" />
        </mxCell>
        <mxCell id="Sv_1La0PYOxw9VYuFhhq-19" value="Verde" style="swimlane;fontStyle=0;childLayout=stackLayout;horizontal=1;startSize=26;horizontalStack=0;resizeParent=1;resizeParentMax=0;resizeLast=0;collapsible=1;marginBottom=0;align=center;fontSize=14;" parent="1" vertex="1">
          <mxGeometry x="268" y="814" width="109" height="116" as="geometry" />
        </mxCell>
        <mxCell id="Sv_1La0PYOxw9VYuFhhq-21" value="banco" style="text;strokeColor=none;fillColor=none;spacingLeft=4;spacingRight=4;overflow=hidden;rotatable=0;points=[[0,0.5],[1,0.5]];portConstraint=eastwest;fontSize=12;whiteSpace=wrap;html=1;" parent="Sv_1La0PYOxw9VYuFhhq-19" vertex="1">
          <mxGeometry y="26" width="109" height="30" as="geometry" />
        </mxCell>
        <mxCell id="Sv_1La0PYOxw9VYuFhhq-22" value="agencia" style="text;strokeColor=none;fillColor=none;spacingLeft=4;spacingRight=4;overflow=hidden;rotatable=0;points=[[0,0.5],[1,0.5]];portConstraint=eastwest;fontSize=12;whiteSpace=wrap;html=1;" parent="Sv_1La0PYOxw9VYuFhhq-19" vertex="1">
          <mxGeometry y="56" width="109" height="30" as="geometry" />
        </mxCell>
        <mxCell id="Sv_1La0PYOxw9VYuFhhq-20" value="numero_conta" style="text;strokeColor=none;fillColor=none;spacingLeft=4;spacingRight=4;overflow=hidden;rotatable=0;points=[[0,0.5],[1,0.5]];portConstraint=eastwest;fontSize=12;whiteSpace=wrap;html=1;" parent="Sv_1La0PYOxw9VYuFhhq-19" vertex="1">
          <mxGeometry y="86" width="109" height="30" as="geometry" />
        </mxCell>
        <mxCell id="hZIp5Htw1J5-9rwUbfWt-2" value="" style="endArrow=none;html=1;rounded=0;exitX=0.5;exitY=0;exitDx=0;exitDy=0;entryX=0.497;entryY=1.021;entryDx=0;entryDy=0;entryPerimeter=0;" edge="1" parent="1" source="hZIp5Htw1J5-9rwUbfWt-44" target="Sv_1La0PYOxw9VYuFhhq-18">
          <mxGeometry width="50" height="50" relative="1" as="geometry">
            <mxPoint x="186" y="636" as="sourcePoint" />
            <mxPoint x="116" y="666" as="targetPoint" />
          </mxGeometry>
        </mxCell>
        <mxCell id="hZIp5Htw1J5-9rwUbfWt-5" value="" style="endArrow=none;html=1;rounded=0;exitX=0.5;exitY=0;exitDx=0;exitDy=0;" edge="1" parent="1" source="Sv_1La0PYOxw9VYuFhhq-5">
          <mxGeometry width="50" height="50" relative="1" as="geometry">
            <mxPoint x="306" y="366" as="sourcePoint" />
            <mxPoint x="318" y="246" as="targetPoint" />
          </mxGeometry>
        </mxCell>
        <mxCell id="hZIp5Htw1J5-9rwUbfWt-6" value="Classe_Veículo" style="swimlane;fontStyle=0;childLayout=stackLayout;horizontal=1;startSize=26;horizontalStack=0;resizeParent=1;resizeParentMax=0;resizeLast=0;collapsible=1;marginBottom=0;align=center;fontSize=14;" vertex="1" parent="1">
          <mxGeometry x="241" y="561" width="160" height="56" as="geometry" />
        </mxCell>
        <mxCell id="hZIp5Htw1J5-9rwUbfWt-7" value="número_classe" style="text;strokeColor=none;fillColor=none;spacingLeft=4;spacingRight=4;overflow=hidden;rotatable=0;points=[[0,0.5],[1,0.5]];portConstraint=eastwest;fontSize=12;whiteSpace=wrap;html=1;" vertex="1" parent="hZIp5Htw1J5-9rwUbfWt-6">
          <mxGeometry y="26" width="160" height="30" as="geometry" />
        </mxCell>
        <mxCell id="hZIp5Htw1J5-9rwUbfWt-12" value="" style="rhombus;whiteSpace=wrap;html=1;" vertex="1" parent="1">
          <mxGeometry x="300" y="486" width="40" height="30" as="geometry" />
        </mxCell>
        <mxCell id="hZIp5Htw1J5-9rwUbfWt-13" value="" style="endArrow=none;html=1;rounded=0;entryX=0.5;entryY=1;entryDx=0;entryDy=0;exitX=0.5;exitY=0;exitDx=0;exitDy=0;" edge="1" parent="1" source="hZIp5Htw1J5-9rwUbfWt-6" target="hZIp5Htw1J5-9rwUbfWt-12">
          <mxGeometry width="50" height="50" relative="1" as="geometry">
            <mxPoint x="360" y="496" as="sourcePoint" />
            <mxPoint x="410" y="446" as="targetPoint" />
          </mxGeometry>
        </mxCell>
        <mxCell id="hZIp5Htw1J5-9rwUbfWt-14" value="" style="endArrow=none;html=1;rounded=0;exitX=0.5;exitY=0;exitDx=0;exitDy=0;" edge="1" parent="1" source="hZIp5Htw1J5-9rwUbfWt-12">
          <mxGeometry width="50" height="50" relative="1" as="geometry">
            <mxPoint x="354" y="496" as="sourcePoint" />
            <mxPoint x="320" y="416" as="targetPoint" />
            <Array as="points" />
          </mxGeometry>
        </mxCell>
        <mxCell id="hZIp5Htw1J5-9rwUbfWt-15" value="" style="endArrow=none;html=1;rounded=0;entryX=0;entryY=0.5;entryDx=0;entryDy=0;exitX=0;exitY=0.5;exitDx=0;exitDy=0;" edge="1" parent="1" source="Sv_1La0PYOxw9VYuFhhq-6" target="hZIp5Htw1J5-9rwUbfWt-12">
          <mxGeometry width="50" height="50" relative="1" as="geometry">
            <mxPoint x="214" y="376" as="sourcePoint" />
            <mxPoint x="303" y="504.0000000000001" as="targetPoint" />
            <Array as="points">
              <mxPoint x="169" y="367" />
              <mxPoint x="169" y="501" />
            </Array>
          </mxGeometry>
        </mxCell>
        <mxCell id="hZIp5Htw1J5-9rwUbfWt-16" value="" style="endArrow=none;dashed=1;html=1;rounded=0;exitX=1;exitY=0.5;exitDx=0;exitDy=0;entryX=0;entryY=0.067;entryDx=0;entryDy=0;entryPerimeter=0;" edge="1" parent="1" source="hZIp5Htw1J5-9rwUbfWt-12" target="hZIp5Htw1J5-9rwUbfWt-18">
          <mxGeometry width="50" height="50" relative="1" as="geometry">
            <mxPoint x="414" y="546" as="sourcePoint" />
            <mxPoint x="444" y="501" as="targetPoint" />
          </mxGeometry>
        </mxCell>
        <mxCell id="hZIp5Htw1J5-9rwUbfWt-17" value="Tarifa" style="swimlane;fontStyle=0;childLayout=stackLayout;horizontal=1;startSize=26;horizontalStack=0;resizeParent=1;resizeParentMax=0;resizeLast=0;collapsible=1;marginBottom=0;align=center;fontSize=14;" vertex="1" parent="1">
          <mxGeometry x="380" y="473" width="80" height="56" as="geometry" />
        </mxCell>
        <mxCell id="hZIp5Htw1J5-9rwUbfWt-18" value="valor" style="text;strokeColor=none;fillColor=none;spacingLeft=4;spacingRight=4;overflow=hidden;rotatable=0;points=[[0,0.5],[1,0.5]];portConstraint=eastwest;fontSize=12;whiteSpace=wrap;html=1;" vertex="1" parent="hZIp5Htw1J5-9rwUbfWt-17">
          <mxGeometry y="26" width="80" height="30" as="geometry" />
        </mxCell>
        <mxCell id="hZIp5Htw1J5-9rwUbfWt-21" value="" style="endArrow=none;html=1;rounded=0;exitX=0.503;exitY=1.096;exitDx=0;exitDy=0;entryX=0.5;entryY=0;entryDx=0;entryDy=0;exitPerimeter=0;" edge="1" parent="1" source="hZIp5Htw1J5-9rwUbfWt-7" target="Sv_1La0PYOxw9VYuFhhq-12">
          <mxGeometry width="50" height="50" relative="1" as="geometry">
            <mxPoint x="330" y="814" as="sourcePoint" />
            <mxPoint x="330" y="741" as="targetPoint" />
          </mxGeometry>
        </mxCell>
        <mxCell id="hZIp5Htw1J5-9rwUbfWt-23" value="" style="endArrow=none;html=1;rounded=0;exitX=0;exitY=0.5;exitDx=0;exitDy=0;entryX=1;entryY=0.5;entryDx=0;entryDy=0;" edge="1" parent="1" source="Sv_1La0PYOxw9VYuFhhq-11" target="Sv_1La0PYOxw9VYuFhhq-17">
          <mxGeometry width="50" height="50" relative="1" as="geometry">
            <mxPoint x="554" y="707" as="sourcePoint" />
            <mxPoint x="414" y="776" as="targetPoint" />
          </mxGeometry>
        </mxCell>
        <mxCell id="hZIp5Htw1J5-9rwUbfWt-25" value="entrada" style="text;html=1;align=center;verticalAlign=middle;resizable=0;points=[];autosize=1;strokeColor=none;fillColor=none;" vertex="1" parent="1">
          <mxGeometry x="175" y="476" width="60" height="30" as="geometry" />
        </mxCell>
        <mxCell id="hZIp5Htw1J5-9rwUbfWt-26" value="saída" style="text;html=1;align=center;verticalAlign=middle;resizable=0;points=[];autosize=1;strokeColor=none;fillColor=none;" vertex="1" parent="1">
          <mxGeometry x="314" y="426" width="50" height="30" as="geometry" />
        </mxCell>
        <mxCell id="hZIp5Htw1J5-9rwUbfWt-30" value="" style="endArrow=none;html=1;rounded=0;entryX=1;entryY=0.5;entryDx=0;entryDy=0;exitX=0.75;exitY=0;exitDx=0;exitDy=0;" edge="1" parent="1" source="Sv_1La0PYOxw9VYuFhhq-9" target="Sv_1La0PYOxw9VYuFhhq-6">
          <mxGeometry width="50" height="50" relative="1" as="geometry">
            <mxPoint x="584" y="626" as="sourcePoint" />
            <mxPoint x="441" y="358.44" as="targetPoint" />
            <Array as="points">
              <mxPoint x="614" y="366" />
            </Array>
          </mxGeometry>
        </mxCell>
        <mxCell id="hZIp5Htw1J5-9rwUbfWt-34" value="" style="endArrow=none;html=1;rounded=0;entryX=1;entryY=0.5;entryDx=0;entryDy=0;exitX=0.25;exitY=0;exitDx=0;exitDy=0;" edge="1" parent="1" source="Sv_1La0PYOxw9VYuFhhq-9" target="Sv_1La0PYOxw9VYuFhhq-7">
          <mxGeometry width="50" height="50" relative="1" as="geometry">
            <mxPoint x="624" y="646" as="sourcePoint" />
            <mxPoint x="408" y="367" as="targetPoint" />
            <Array as="points">
              <mxPoint x="534" y="397" />
            </Array>
          </mxGeometry>
        </mxCell>
        <mxCell id="hZIp5Htw1J5-9rwUbfWt-35" value="1" style="text;html=1;align=center;verticalAlign=middle;resizable=0;points=[];autosize=1;strokeColor=none;fillColor=none;" vertex="1" parent="1">
          <mxGeometry x="315" y="238" width="30" height="30" as="geometry" />
        </mxCell>
        <mxCell id="hZIp5Htw1J5-9rwUbfWt-36" value="*" style="text;html=1;align=center;verticalAlign=middle;resizable=0;points=[];autosize=1;strokeColor=none;fillColor=none;" vertex="1" parent="1">
          <mxGeometry x="315" y="302" width="30" height="30" as="geometry" />
        </mxCell>
        <mxCell id="hZIp5Htw1J5-9rwUbfWt-37" value="*" style="text;html=1;align=center;verticalAlign=middle;resizable=0;points=[];autosize=1;strokeColor=none;fillColor=none;" vertex="1" parent="1">
          <mxGeometry x="315" y="408" width="30" height="30" as="geometry" />
        </mxCell>
        <mxCell id="hZIp5Htw1J5-9rwUbfWt-38" value="*" style="text;html=1;align=center;verticalAlign=middle;resizable=0;points=[];autosize=1;strokeColor=none;fillColor=none;" vertex="1" parent="1">
          <mxGeometry x="211" y="363" width="30" height="30" as="geometry" />
        </mxCell>
        <mxCell id="hZIp5Htw1J5-9rwUbfWt-39" value="*" style="text;html=1;align=center;verticalAlign=middle;resizable=0;points=[];autosize=1;strokeColor=none;fillColor=none;" vertex="1" parent="1">
          <mxGeometry x="315" y="538" width="30" height="30" as="geometry" />
        </mxCell>
        <mxCell id="hZIp5Htw1J5-9rwUbfWt-40" value="1" style="text;html=1;align=center;verticalAlign=middle;resizable=0;points=[];autosize=1;strokeColor=none;fillColor=none;" vertex="1" parent="1">
          <mxGeometry x="315" y="613" width="30" height="30" as="geometry" />
        </mxCell>
        <mxCell id="hZIp5Htw1J5-9rwUbfWt-41" value="*" style="text;html=1;align=center;verticalAlign=middle;resizable=0;points=[];autosize=1;strokeColor=none;fillColor=none;" vertex="1" parent="1">
          <mxGeometry x="316" y="644" width="30" height="30" as="geometry" />
        </mxCell>
        <mxCell id="hZIp5Htw1J5-9rwUbfWt-42" value="1" style="text;html=1;align=center;verticalAlign=middle;resizable=0;points=[];autosize=1;strokeColor=none;fillColor=none;" vertex="1" parent="1">
          <mxGeometry x="395" y="678" width="30" height="30" as="geometry" />
        </mxCell>
        <mxCell id="hZIp5Htw1J5-9rwUbfWt-43" value="*" style="text;html=1;align=center;verticalAlign=middle;resizable=0;points=[];autosize=1;strokeColor=none;fillColor=none;" vertex="1" parent="1">
          <mxGeometry x="469" y="683" width="30" height="30" as="geometry" />
        </mxCell>
        <mxCell id="hZIp5Htw1J5-9rwUbfWt-45" value="" style="endArrow=none;html=1;rounded=0;exitX=0.5;exitY=0;exitDx=0;exitDy=0;entryX=0;entryY=0.5;entryDx=0;entryDy=0;" edge="1" parent="1" source="Sv_1La0PYOxw9VYuFhhq-19" target="hZIp5Htw1J5-9rwUbfWt-44">
          <mxGeometry width="50" height="50" relative="1" as="geometry">
            <mxPoint x="321" y="826" as="sourcePoint" />
            <mxPoint x="321" y="753" as="targetPoint" />
          </mxGeometry>
        </mxCell>
        <mxCell id="hZIp5Htw1J5-9rwUbfWt-44" value="" style="triangle;whiteSpace=wrap;html=1;rotation=-91;" vertex="1" parent="1">
          <mxGeometry x="316.41" y="750.56" width="10" height="13" as="geometry" />
        </mxCell>
        <mxCell id="hZIp5Htw1J5-9rwUbfWt-46" value="1" style="text;html=1;align=center;verticalAlign=middle;resizable=0;points=[];autosize=1;strokeColor=none;fillColor=none;" vertex="1" parent="1">
          <mxGeometry x="395" y="398" width="30" height="30" as="geometry" />
        </mxCell>
        <mxCell id="hZIp5Htw1J5-9rwUbfWt-47" value="1" style="text;html=1;align=center;verticalAlign=middle;resizable=0;points=[];autosize=1;strokeColor=none;fillColor=none;" vertex="1" parent="1">
          <mxGeometry x="395" y="337" width="30" height="30" as="geometry" />
        </mxCell>
        <mxCell id="hZIp5Htw1J5-9rwUbfWt-48" value="*" style="text;html=1;align=center;verticalAlign=middle;resizable=0;points=[];autosize=1;strokeColor=none;fillColor=none;" vertex="1" parent="1">
          <mxGeometry x="510" y="608" width="30" height="30" as="geometry" />
        </mxCell>
        <mxCell id="hZIp5Htw1J5-9rwUbfWt-49" value="*" style="text;html=1;align=center;verticalAlign=middle;resizable=0;points=[];autosize=1;strokeColor=none;fillColor=none;" vertex="1" parent="1">
          <mxGeometry x="608" y="609" width="30" height="30" as="geometry" />
        </mxCell>
        <mxCell id="wQsJqWTP1K3nV3xCuxTR-1" value="Autoestradas" style="shape=table;startSize=30;container=1;collapsible=1;childLayout=tableLayout;fixedRows=1;rowLines=0;fontStyle=1;align=center;resizeLast=1;html=1;" vertex="1" parent="1">
          <mxGeometry x="876" y="230" width="180" height="120" as="geometry" />
        </mxCell>
        <mxCell id="wQsJqWTP1K3nV3xCuxTR-2" value="" style="shape=tableRow;horizontal=0;startSize=0;swimlaneHead=0;swimlaneBody=0;fillColor=none;collapsible=0;dropTarget=0;points=[[0,0.5],[1,0.5]];portConstraint=eastwest;top=0;left=0;right=0;bottom=1;" vertex="1" parent="wQsJqWTP1K3nV3xCuxTR-1">
          <mxGeometry y="30" width="180" height="30" as="geometry" />
        </mxCell>
        <mxCell id="wQsJqWTP1K3nV3xCuxTR-3" value="PK" style="shape=partialRectangle;connectable=0;fillColor=none;top=0;left=0;bottom=0;right=0;fontStyle=1;overflow=hidden;whiteSpace=wrap;html=1;" vertex="1" parent="wQsJqWTP1K3nV3xCuxTR-2">
          <mxGeometry width="30" height="30" as="geometry">
            <mxRectangle width="30" height="30" as="alternateBounds" />
          </mxGeometry>
        </mxCell>
        <mxCell id="wQsJqWTP1K3nV3xCuxTR-4" value="numero" style="shape=partialRectangle;connectable=0;fillColor=none;top=0;left=0;bottom=0;right=0;align=left;spacingLeft=6;fontStyle=5;overflow=hidden;whiteSpace=wrap;html=1;" vertex="1" parent="wQsJqWTP1K3nV3xCuxTR-2">
          <mxGeometry x="30" width="150" height="30" as="geometry">
            <mxRectangle width="150" height="30" as="alternateBounds" />
          </mxGeometry>
        </mxCell>
        <mxCell id="wQsJqWTP1K3nV3xCuxTR-5" value="" style="shape=tableRow;horizontal=0;startSize=0;swimlaneHead=0;swimlaneBody=0;fillColor=none;collapsible=0;dropTarget=0;points=[[0,0.5],[1,0.5]];portConstraint=eastwest;top=0;left=0;right=0;bottom=0;" vertex="1" parent="wQsJqWTP1K3nV3xCuxTR-1">
          <mxGeometry y="60" width="180" height="30" as="geometry" />
        </mxCell>
        <mxCell id="wQsJqWTP1K3nV3xCuxTR-6" value="" style="shape=partialRectangle;connectable=0;fillColor=none;top=0;left=0;bottom=0;right=0;editable=1;overflow=hidden;whiteSpace=wrap;html=1;" vertex="1" parent="wQsJqWTP1K3nV3xCuxTR-5">
          <mxGeometry width="30" height="30" as="geometry">
            <mxRectangle width="30" height="30" as="alternateBounds" />
          </mxGeometry>
        </mxCell>
        <mxCell id="wQsJqWTP1K3nV3xCuxTR-7" value="nome" style="shape=partialRectangle;connectable=0;fillColor=none;top=0;left=0;bottom=0;right=0;align=left;spacingLeft=6;overflow=hidden;whiteSpace=wrap;html=1;" vertex="1" parent="wQsJqWTP1K3nV3xCuxTR-5">
          <mxGeometry x="30" width="150" height="30" as="geometry">
            <mxRectangle width="150" height="30" as="alternateBounds" />
          </mxGeometry>
        </mxCell>
        <mxCell id="wQsJqWTP1K3nV3xCuxTR-8" value="" style="shape=tableRow;horizontal=0;startSize=0;swimlaneHead=0;swimlaneBody=0;fillColor=none;collapsible=0;dropTarget=0;points=[[0,0.5],[1,0.5]];portConstraint=eastwest;top=0;left=0;right=0;bottom=0;" vertex="1" parent="wQsJqWTP1K3nV3xCuxTR-1">
          <mxGeometry y="90" width="180" height="30" as="geometry" />
        </mxCell>
        <mxCell id="wQsJqWTP1K3nV3xCuxTR-9" value="" style="shape=partialRectangle;connectable=0;fillColor=none;top=0;left=0;bottom=0;right=0;editable=1;overflow=hidden;whiteSpace=wrap;html=1;" vertex="1" parent="wQsJqWTP1K3nV3xCuxTR-8">
          <mxGeometry width="30" height="30" as="geometry">
            <mxRectangle width="30" height="30" as="alternateBounds" />
          </mxGeometry>
        </mxCell>
        <mxCell id="wQsJqWTP1K3nV3xCuxTR-10" value="extensao" style="shape=partialRectangle;connectable=0;fillColor=none;top=0;left=0;bottom=0;right=0;align=left;spacingLeft=6;overflow=hidden;whiteSpace=wrap;html=1;" vertex="1" parent="wQsJqWTP1K3nV3xCuxTR-8">
          <mxGeometry x="30" width="150" height="30" as="geometry">
            <mxRectangle width="150" height="30" as="alternateBounds" />
          </mxGeometry>
        </mxCell>
        <mxCell id="wQsJqWTP1K3nV3xCuxTR-27" style="edgeStyle=orthogonalEdgeStyle;rounded=0;orthogonalLoop=1;jettySize=auto;html=1;entryX=1;entryY=0.5;entryDx=0;entryDy=0;exitX=0;exitY=0.5;exitDx=0;exitDy=0;" edge="1" parent="1" source="wQsJqWTP1K3nV3xCuxTR-21" target="wQsJqWTP1K3nV3xCuxTR-8">
          <mxGeometry relative="1" as="geometry">
            <mxPoint x="1238" y="182" as="targetPoint" />
          </mxGeometry>
        </mxCell>
        <mxCell id="wQsJqWTP1K3nV3xCuxTR-14" value="Barreiras" style="shape=table;startSize=30;container=1;collapsible=1;childLayout=tableLayout;fixedRows=1;rowLines=0;fontStyle=1;align=center;resizeLast=1;html=1;" vertex="1" parent="1">
          <mxGeometry x="1148" y="230" width="180" height="120" as="geometry" />
        </mxCell>
        <mxCell id="wQsJqWTP1K3nV3xCuxTR-15" value="" style="shape=tableRow;horizontal=0;startSize=0;swimlaneHead=0;swimlaneBody=0;fillColor=none;collapsible=0;dropTarget=0;points=[[0,0.5],[1,0.5]];portConstraint=eastwest;top=0;left=0;right=0;bottom=1;" vertex="1" parent="wQsJqWTP1K3nV3xCuxTR-14">
          <mxGeometry y="30" width="180" height="30" as="geometry" />
        </mxCell>
        <mxCell id="wQsJqWTP1K3nV3xCuxTR-16" value="PK" style="shape=partialRectangle;connectable=0;fillColor=none;top=0;left=0;bottom=0;right=0;fontStyle=1;overflow=hidden;whiteSpace=wrap;html=1;" vertex="1" parent="wQsJqWTP1K3nV3xCuxTR-15">
          <mxGeometry width="30" height="30" as="geometry">
            <mxRectangle width="30" height="30" as="alternateBounds" />
          </mxGeometry>
        </mxCell>
        <mxCell id="wQsJqWTP1K3nV3xCuxTR-17" value="numero" style="shape=partialRectangle;connectable=0;fillColor=none;top=0;left=0;bottom=0;right=0;align=left;spacingLeft=6;fontStyle=5;overflow=hidden;whiteSpace=wrap;html=1;" vertex="1" parent="wQsJqWTP1K3nV3xCuxTR-15">
          <mxGeometry x="30" width="150" height="30" as="geometry">
            <mxRectangle width="150" height="30" as="alternateBounds" />
          </mxGeometry>
        </mxCell>
        <mxCell id="wQsJqWTP1K3nV3xCuxTR-18" value="" style="shape=tableRow;horizontal=0;startSize=0;swimlaneHead=0;swimlaneBody=0;fillColor=none;collapsible=0;dropTarget=0;points=[[0,0.5],[1,0.5]];portConstraint=eastwest;top=0;left=0;right=0;bottom=0;" vertex="1" parent="wQsJqWTP1K3nV3xCuxTR-14">
          <mxGeometry y="60" width="180" height="30" as="geometry" />
        </mxCell>
        <mxCell id="wQsJqWTP1K3nV3xCuxTR-19" value="" style="shape=partialRectangle;connectable=0;fillColor=none;top=0;left=0;bottom=0;right=0;editable=1;overflow=hidden;whiteSpace=wrap;html=1;" vertex="1" parent="wQsJqWTP1K3nV3xCuxTR-18">
          <mxGeometry width="30" height="30" as="geometry">
            <mxRectangle width="30" height="30" as="alternateBounds" />
          </mxGeometry>
        </mxCell>
        <mxCell id="wQsJqWTP1K3nV3xCuxTR-20" value="local" style="shape=partialRectangle;connectable=0;fillColor=none;top=0;left=0;bottom=0;right=0;align=left;spacingLeft=6;overflow=hidden;whiteSpace=wrap;html=1;" vertex="1" parent="wQsJqWTP1K3nV3xCuxTR-18">
          <mxGeometry x="30" width="150" height="30" as="geometry">
            <mxRectangle width="150" height="30" as="alternateBounds" />
          </mxGeometry>
        </mxCell>
        <mxCell id="wQsJqWTP1K3nV3xCuxTR-21" value="" style="shape=tableRow;horizontal=0;startSize=0;swimlaneHead=0;swimlaneBody=0;fillColor=none;collapsible=0;dropTarget=0;points=[[0,0.5],[1,0.5]];portConstraint=eastwest;top=0;left=0;right=0;bottom=0;" vertex="1" parent="wQsJqWTP1K3nV3xCuxTR-14">
          <mxGeometry y="90" width="180" height="30" as="geometry" />
        </mxCell>
        <mxCell id="wQsJqWTP1K3nV3xCuxTR-22" value="FK" style="shape=partialRectangle;connectable=0;fillColor=none;top=0;left=0;bottom=0;right=0;editable=1;overflow=hidden;whiteSpace=wrap;html=1;" vertex="1" parent="wQsJqWTP1K3nV3xCuxTR-21">
          <mxGeometry width="30" height="30" as="geometry">
            <mxRectangle width="30" height="30" as="alternateBounds" />
          </mxGeometry>
        </mxCell>
        <mxCell id="wQsJqWTP1K3nV3xCuxTR-23" value="numero_autoestrada" style="shape=partialRectangle;connectable=0;fillColor=none;top=0;left=0;bottom=0;right=0;align=left;spacingLeft=6;overflow=hidden;whiteSpace=wrap;html=1;" vertex="1" parent="wQsJqWTP1K3nV3xCuxTR-21">
          <mxGeometry x="30" width="150" height="30" as="geometry">
            <mxRectangle width="150" height="30" as="alternateBounds" />
          </mxGeometry>
        </mxCell>
        <mxCell id="wQsJqWTP1K3nV3xCuxTR-28" value="Tarifas" style="shape=table;startSize=30;container=1;collapsible=1;childLayout=tableLayout;fixedRows=1;rowLines=0;fontStyle=1;align=center;resizeLast=1;html=1;whiteSpace=wrap;" vertex="1" parent="1">
          <mxGeometry x="1397" y="230" width="180" height="150" as="geometry" />
        </mxCell>
        <mxCell id="wQsJqWTP1K3nV3xCuxTR-29" value="" style="shape=tableRow;horizontal=0;startSize=0;swimlaneHead=0;swimlaneBody=0;fillColor=none;collapsible=0;dropTarget=0;points=[[0,0.5],[1,0.5]];portConstraint=eastwest;top=0;left=0;right=0;bottom=0;html=1;" vertex="1" parent="wQsJqWTP1K3nV3xCuxTR-28">
          <mxGeometry y="30" width="180" height="30" as="geometry" />
        </mxCell>
        <mxCell id="wQsJqWTP1K3nV3xCuxTR-30" value="PK,FK1" style="shape=partialRectangle;connectable=0;fillColor=none;top=0;left=0;bottom=0;right=0;fontStyle=1;overflow=hidden;html=1;whiteSpace=wrap;" vertex="1" parent="wQsJqWTP1K3nV3xCuxTR-29">
          <mxGeometry width="60" height="30" as="geometry">
            <mxRectangle width="60" height="30" as="alternateBounds" />
          </mxGeometry>
        </mxCell>
        <mxCell id="wQsJqWTP1K3nV3xCuxTR-31" value="barreira_entrada" style="shape=partialRectangle;connectable=0;fillColor=none;top=0;left=0;bottom=0;right=0;align=left;spacingLeft=6;fontStyle=5;overflow=hidden;html=1;whiteSpace=wrap;" vertex="1" parent="wQsJqWTP1K3nV3xCuxTR-29">
          <mxGeometry x="60" width="120" height="30" as="geometry">
            <mxRectangle width="120" height="30" as="alternateBounds" />
          </mxGeometry>
        </mxCell>
        <mxCell id="wQsJqWTP1K3nV3xCuxTR-41" value="" style="shape=tableRow;horizontal=0;startSize=0;swimlaneHead=0;swimlaneBody=0;fillColor=none;collapsible=0;dropTarget=0;points=[[0,0.5],[1,0.5]];portConstraint=eastwest;top=0;left=0;right=0;bottom=1;html=1;" vertex="1" parent="wQsJqWTP1K3nV3xCuxTR-28">
          <mxGeometry y="60" width="180" height="30" as="geometry" />
        </mxCell>
        <mxCell id="wQsJqWTP1K3nV3xCuxTR-42" value="PK,FK2" style="shape=partialRectangle;connectable=0;fillColor=none;top=0;left=0;bottom=0;right=0;fontStyle=1;overflow=hidden;html=1;whiteSpace=wrap;" vertex="1" parent="wQsJqWTP1K3nV3xCuxTR-41">
          <mxGeometry width="60" height="30" as="geometry">
            <mxRectangle width="60" height="30" as="alternateBounds" />
          </mxGeometry>
        </mxCell>
        <mxCell id="wQsJqWTP1K3nV3xCuxTR-43" value="barreira_saida" style="shape=partialRectangle;connectable=0;fillColor=none;top=0;left=0;bottom=0;right=0;align=left;spacingLeft=6;fontStyle=5;overflow=hidden;html=1;whiteSpace=wrap;" vertex="1" parent="wQsJqWTP1K3nV3xCuxTR-41">
          <mxGeometry x="60" width="120" height="30" as="geometry">
            <mxRectangle width="120" height="30" as="alternateBounds" />
          </mxGeometry>
        </mxCell>
        <mxCell id="wQsJqWTP1K3nV3xCuxTR-32" value="" style="shape=tableRow;horizontal=0;startSize=0;swimlaneHead=0;swimlaneBody=0;fillColor=none;collapsible=0;dropTarget=0;points=[[0,0.5],[1,0.5]];portConstraint=eastwest;top=0;left=0;right=0;bottom=1;html=1;" vertex="1" parent="wQsJqWTP1K3nV3xCuxTR-28">
          <mxGeometry y="90" width="180" height="30" as="geometry" />
        </mxCell>
        <mxCell id="wQsJqWTP1K3nV3xCuxTR-33" value="PK,FK2" style="shape=partialRectangle;connectable=0;fillColor=none;top=0;left=0;bottom=0;right=0;fontStyle=1;overflow=hidden;html=1;whiteSpace=wrap;" vertex="1" parent="wQsJqWTP1K3nV3xCuxTR-32">
          <mxGeometry width="60" height="30" as="geometry">
            <mxRectangle width="60" height="30" as="alternateBounds" />
          </mxGeometry>
        </mxCell>
        <mxCell id="wQsJqWTP1K3nV3xCuxTR-34" value="classe_veiculo" style="shape=partialRectangle;connectable=0;fillColor=none;top=0;left=0;bottom=0;right=0;align=left;spacingLeft=6;fontStyle=5;overflow=hidden;html=1;whiteSpace=wrap;" vertex="1" parent="wQsJqWTP1K3nV3xCuxTR-32">
          <mxGeometry x="60" width="120" height="30" as="geometry">
            <mxRectangle width="120" height="30" as="alternateBounds" />
          </mxGeometry>
        </mxCell>
        <mxCell id="wQsJqWTP1K3nV3xCuxTR-35" value="" style="shape=tableRow;horizontal=0;startSize=0;swimlaneHead=0;swimlaneBody=0;fillColor=none;collapsible=0;dropTarget=0;points=[[0,0.5],[1,0.5]];portConstraint=eastwest;top=0;left=0;right=0;bottom=0;html=1;" vertex="1" parent="wQsJqWTP1K3nV3xCuxTR-28">
          <mxGeometry y="120" width="180" height="30" as="geometry" />
        </mxCell>
        <mxCell id="wQsJqWTP1K3nV3xCuxTR-36" value="" style="shape=partialRectangle;connectable=0;fillColor=none;top=0;left=0;bottom=0;right=0;editable=1;overflow=hidden;html=1;whiteSpace=wrap;" vertex="1" parent="wQsJqWTP1K3nV3xCuxTR-35">
          <mxGeometry width="60" height="30" as="geometry">
            <mxRectangle width="60" height="30" as="alternateBounds" />
          </mxGeometry>
        </mxCell>
        <mxCell id="wQsJqWTP1K3nV3xCuxTR-37" value="valor" style="shape=partialRectangle;connectable=0;fillColor=none;top=0;left=0;bottom=0;right=0;align=left;spacingLeft=6;overflow=hidden;html=1;whiteSpace=wrap;" vertex="1" parent="wQsJqWTP1K3nV3xCuxTR-35">
          <mxGeometry x="60" width="120" height="30" as="geometry">
            <mxRectangle width="120" height="30" as="alternateBounds" />
          </mxGeometry>
        </mxCell>
        <mxCell id="wQsJqWTP1K3nV3xCuxTR-44" style="edgeStyle=orthogonalEdgeStyle;rounded=0;orthogonalLoop=1;jettySize=auto;html=1;exitX=0;exitY=0.5;exitDx=0;exitDy=0;entryX=1;entryY=0.5;entryDx=0;entryDy=0;" edge="1" parent="1" source="wQsJqWTP1K3nV3xCuxTR-29" target="wQsJqWTP1K3nV3xCuxTR-15">
          <mxGeometry relative="1" as="geometry" />
        </mxCell>
        <mxCell id="wQsJqWTP1K3nV3xCuxTR-45" style="edgeStyle=orthogonalEdgeStyle;rounded=0;orthogonalLoop=1;jettySize=auto;html=1;exitX=0;exitY=0.5;exitDx=0;exitDy=0;entryX=1;entryY=0.5;entryDx=0;entryDy=0;" edge="1" parent="1" source="wQsJqWTP1K3nV3xCuxTR-41" target="wQsJqWTP1K3nV3xCuxTR-18">
          <mxGeometry relative="1" as="geometry" />
        </mxCell>
        <mxCell id="wQsJqWTP1K3nV3xCuxTR-46" style="edgeStyle=orthogonalEdgeStyle;rounded=0;orthogonalLoop=1;jettySize=auto;html=1;exitX=1;exitY=0.5;exitDx=0;exitDy=0;entryX=1;entryY=0.5;entryDx=0;entryDy=0;" edge="1" parent="1" source="wQsJqWTP1K3nV3xCuxTR-32" target="wQsJqWTP1K3nV3xCuxTR-48">
          <mxGeometry relative="1" as="geometry">
            <mxPoint x="1281.0000000000005" y="528.0000000000002" as="targetPoint" />
          </mxGeometry>
        </mxCell>
        <mxCell id="wQsJqWTP1K3nV3xCuxTR-47" value="Classes_Veículos" style="shape=table;startSize=30;container=1;collapsible=1;childLayout=tableLayout;fixedRows=1;rowLines=0;fontStyle=1;align=center;resizeLast=1;html=1;" vertex="1" parent="1">
          <mxGeometry x="1447" y="480" width="133" height="60" as="geometry" />
        </mxCell>
        <mxCell id="wQsJqWTP1K3nV3xCuxTR-48" value="" style="shape=tableRow;horizontal=0;startSize=0;swimlaneHead=0;swimlaneBody=0;fillColor=none;collapsible=0;dropTarget=0;points=[[0,0.5],[1,0.5]];portConstraint=eastwest;top=0;left=0;right=0;bottom=1;" vertex="1" parent="wQsJqWTP1K3nV3xCuxTR-47">
          <mxGeometry y="30" width="133" height="30" as="geometry" />
        </mxCell>
        <mxCell id="wQsJqWTP1K3nV3xCuxTR-49" value="PK" style="shape=partialRectangle;connectable=0;fillColor=none;top=0;left=0;bottom=0;right=0;fontStyle=1;overflow=hidden;whiteSpace=wrap;html=1;" vertex="1" parent="wQsJqWTP1K3nV3xCuxTR-48">
          <mxGeometry width="30" height="30" as="geometry">
            <mxRectangle width="30" height="30" as="alternateBounds" />
          </mxGeometry>
        </mxCell>
        <mxCell id="wQsJqWTP1K3nV3xCuxTR-50" value="classe" style="shape=partialRectangle;connectable=0;fillColor=none;top=0;left=0;bottom=0;right=0;align=left;spacingLeft=6;fontStyle=5;overflow=hidden;whiteSpace=wrap;html=1;" vertex="1" parent="wQsJqWTP1K3nV3xCuxTR-48">
          <mxGeometry x="30" width="103" height="30" as="geometry">
            <mxRectangle width="103" height="30" as="alternateBounds" />
          </mxGeometry>
        </mxCell>
        <mxCell id="wQsJqWTP1K3nV3xCuxTR-60" value="Veículos" style="shape=table;startSize=30;container=1;collapsible=1;childLayout=tableLayout;fixedRows=1;rowLines=0;fontStyle=1;align=center;resizeLast=1;html=1;" vertex="1" parent="1">
          <mxGeometry x="1232" y="525" width="180" height="240" as="geometry" />
        </mxCell>
        <mxCell id="wQsJqWTP1K3nV3xCuxTR-61" value="" style="shape=tableRow;horizontal=0;startSize=0;swimlaneHead=0;swimlaneBody=0;fillColor=none;collapsible=0;dropTarget=0;points=[[0,0.5],[1,0.5]];portConstraint=eastwest;top=0;left=0;right=0;bottom=1;" vertex="1" parent="wQsJqWTP1K3nV3xCuxTR-60">
          <mxGeometry y="30" width="180" height="30" as="geometry" />
        </mxCell>
        <mxCell id="wQsJqWTP1K3nV3xCuxTR-62" value="PK" style="shape=partialRectangle;connectable=0;fillColor=none;top=0;left=0;bottom=0;right=0;fontStyle=1;overflow=hidden;whiteSpace=wrap;html=1;" vertex="1" parent="wQsJqWTP1K3nV3xCuxTR-61">
          <mxGeometry width="30" height="30" as="geometry">
            <mxRectangle width="30" height="30" as="alternateBounds" />
          </mxGeometry>
        </mxCell>
        <mxCell id="wQsJqWTP1K3nV3xCuxTR-63" value="matricula" style="shape=partialRectangle;connectable=0;fillColor=none;top=0;left=0;bottom=0;right=0;align=left;spacingLeft=6;fontStyle=5;overflow=hidden;whiteSpace=wrap;html=1;" vertex="1" parent="wQsJqWTP1K3nV3xCuxTR-61">
          <mxGeometry x="30" width="150" height="30" as="geometry">
            <mxRectangle width="150" height="30" as="alternateBounds" />
          </mxGeometry>
        </mxCell>
        <mxCell id="wQsJqWTP1K3nV3xCuxTR-64" value="" style="shape=tableRow;horizontal=0;startSize=0;swimlaneHead=0;swimlaneBody=0;fillColor=none;collapsible=0;dropTarget=0;points=[[0,0.5],[1,0.5]];portConstraint=eastwest;top=0;left=0;right=0;bottom=0;" vertex="1" parent="wQsJqWTP1K3nV3xCuxTR-60">
          <mxGeometry y="60" width="180" height="30" as="geometry" />
        </mxCell>
        <mxCell id="wQsJqWTP1K3nV3xCuxTR-65" value="" style="shape=partialRectangle;connectable=0;fillColor=none;top=0;left=0;bottom=0;right=0;editable=1;overflow=hidden;whiteSpace=wrap;html=1;" vertex="1" parent="wQsJqWTP1K3nV3xCuxTR-64">
          <mxGeometry width="30" height="30" as="geometry">
            <mxRectangle width="30" height="30" as="alternateBounds" />
          </mxGeometry>
        </mxCell>
        <mxCell id="wQsJqWTP1K3nV3xCuxTR-66" value="marca" style="shape=partialRectangle;connectable=0;fillColor=none;top=0;left=0;bottom=0;right=0;align=left;spacingLeft=6;overflow=hidden;whiteSpace=wrap;html=1;" vertex="1" parent="wQsJqWTP1K3nV3xCuxTR-64">
          <mxGeometry x="30" width="150" height="30" as="geometry">
            <mxRectangle width="150" height="30" as="alternateBounds" />
          </mxGeometry>
        </mxCell>
        <mxCell id="wQsJqWTP1K3nV3xCuxTR-67" value="" style="shape=tableRow;horizontal=0;startSize=0;swimlaneHead=0;swimlaneBody=0;fillColor=none;collapsible=0;dropTarget=0;points=[[0,0.5],[1,0.5]];portConstraint=eastwest;top=0;left=0;right=0;bottom=0;" vertex="1" parent="wQsJqWTP1K3nV3xCuxTR-60">
          <mxGeometry y="90" width="180" height="30" as="geometry" />
        </mxCell>
        <mxCell id="wQsJqWTP1K3nV3xCuxTR-68" value="" style="shape=partialRectangle;connectable=0;fillColor=none;top=0;left=0;bottom=0;right=0;editable=1;overflow=hidden;whiteSpace=wrap;html=1;" vertex="1" parent="wQsJqWTP1K3nV3xCuxTR-67">
          <mxGeometry width="30" height="30" as="geometry">
            <mxRectangle width="30" height="30" as="alternateBounds" />
          </mxGeometry>
        </mxCell>
        <mxCell id="wQsJqWTP1K3nV3xCuxTR-69" value="é_verde" style="shape=partialRectangle;connectable=0;fillColor=none;top=0;left=0;bottom=0;right=0;align=left;spacingLeft=6;overflow=hidden;whiteSpace=wrap;html=1;" vertex="1" parent="wQsJqWTP1K3nV3xCuxTR-67">
          <mxGeometry x="30" width="150" height="30" as="geometry">
            <mxRectangle width="150" height="30" as="alternateBounds" />
          </mxGeometry>
        </mxCell>
        <mxCell id="wQsJqWTP1K3nV3xCuxTR-70" value="" style="shape=tableRow;horizontal=0;startSize=0;swimlaneHead=0;swimlaneBody=0;fillColor=none;collapsible=0;dropTarget=0;points=[[0,0.5],[1,0.5]];portConstraint=eastwest;top=0;left=0;right=0;bottom=0;" vertex="1" parent="wQsJqWTP1K3nV3xCuxTR-60">
          <mxGeometry y="120" width="180" height="30" as="geometry" />
        </mxCell>
        <mxCell id="wQsJqWTP1K3nV3xCuxTR-71" value="" style="shape=partialRectangle;connectable=0;fillColor=none;top=0;left=0;bottom=0;right=0;editable=1;overflow=hidden;whiteSpace=wrap;html=1;" vertex="1" parent="wQsJqWTP1K3nV3xCuxTR-70">
          <mxGeometry width="30" height="30" as="geometry">
            <mxRectangle width="30" height="30" as="alternateBounds" />
          </mxGeometry>
        </mxCell>
        <mxCell id="wQsJqWTP1K3nV3xCuxTR-72" value="agencia" style="shape=partialRectangle;connectable=0;fillColor=none;top=0;left=0;bottom=0;right=0;align=left;spacingLeft=6;overflow=hidden;whiteSpace=wrap;html=1;" vertex="1" parent="wQsJqWTP1K3nV3xCuxTR-70">
          <mxGeometry x="30" width="150" height="30" as="geometry">
            <mxRectangle width="150" height="30" as="alternateBounds" />
          </mxGeometry>
        </mxCell>
        <mxCell id="wQsJqWTP1K3nV3xCuxTR-73" value="" style="shape=tableRow;horizontal=0;startSize=0;swimlaneHead=0;swimlaneBody=0;fillColor=none;collapsible=0;dropTarget=0;points=[[0,0.5],[1,0.5]];portConstraint=eastwest;top=0;left=0;right=0;bottom=0;" vertex="1" parent="wQsJqWTP1K3nV3xCuxTR-60">
          <mxGeometry y="150" width="180" height="30" as="geometry" />
        </mxCell>
        <mxCell id="wQsJqWTP1K3nV3xCuxTR-74" value="" style="shape=partialRectangle;connectable=0;fillColor=none;top=0;left=0;bottom=0;right=0;editable=1;overflow=hidden;whiteSpace=wrap;html=1;" vertex="1" parent="wQsJqWTP1K3nV3xCuxTR-73">
          <mxGeometry width="30" height="30" as="geometry">
            <mxRectangle width="30" height="30" as="alternateBounds" />
          </mxGeometry>
        </mxCell>
        <mxCell id="wQsJqWTP1K3nV3xCuxTR-75" value="banco" style="shape=partialRectangle;connectable=0;fillColor=none;top=0;left=0;bottom=0;right=0;align=left;spacingLeft=6;overflow=hidden;whiteSpace=wrap;html=1;" vertex="1" parent="wQsJqWTP1K3nV3xCuxTR-73">
          <mxGeometry x="30" width="150" height="30" as="geometry">
            <mxRectangle width="150" height="30" as="alternateBounds" />
          </mxGeometry>
        </mxCell>
        <mxCell id="wQsJqWTP1K3nV3xCuxTR-76" value="" style="shape=tableRow;horizontal=0;startSize=0;swimlaneHead=0;swimlaneBody=0;fillColor=none;collapsible=0;dropTarget=0;points=[[0,0.5],[1,0.5]];portConstraint=eastwest;top=0;left=0;right=0;bottom=0;" vertex="1" parent="wQsJqWTP1K3nV3xCuxTR-60">
          <mxGeometry y="180" width="180" height="30" as="geometry" />
        </mxCell>
        <mxCell id="wQsJqWTP1K3nV3xCuxTR-77" value="" style="shape=partialRectangle;connectable=0;fillColor=none;top=0;left=0;bottom=0;right=0;editable=1;overflow=hidden;whiteSpace=wrap;html=1;" vertex="1" parent="wQsJqWTP1K3nV3xCuxTR-76">
          <mxGeometry width="30" height="30" as="geometry">
            <mxRectangle width="30" height="30" as="alternateBounds" />
          </mxGeometry>
        </mxCell>
        <mxCell id="wQsJqWTP1K3nV3xCuxTR-78" value="conta" style="shape=partialRectangle;connectable=0;fillColor=none;top=0;left=0;bottom=0;right=0;align=left;spacingLeft=6;overflow=hidden;whiteSpace=wrap;html=1;" vertex="1" parent="wQsJqWTP1K3nV3xCuxTR-76">
          <mxGeometry x="30" width="150" height="30" as="geometry">
            <mxRectangle width="150" height="30" as="alternateBounds" />
          </mxGeometry>
        </mxCell>
        <mxCell id="wQsJqWTP1K3nV3xCuxTR-79" value="" style="shape=tableRow;horizontal=0;startSize=0;swimlaneHead=0;swimlaneBody=0;fillColor=none;collapsible=0;dropTarget=0;points=[[0,0.5],[1,0.5]];portConstraint=eastwest;top=0;left=0;right=0;bottom=0;" vertex="1" parent="wQsJqWTP1K3nV3xCuxTR-60">
          <mxGeometry y="210" width="180" height="30" as="geometry" />
        </mxCell>
        <mxCell id="wQsJqWTP1K3nV3xCuxTR-80" value="FK" style="shape=partialRectangle;connectable=0;fillColor=none;top=0;left=0;bottom=0;right=0;editable=1;overflow=hidden;whiteSpace=wrap;html=1;" vertex="1" parent="wQsJqWTP1K3nV3xCuxTR-79">
          <mxGeometry width="30" height="30" as="geometry">
            <mxRectangle width="30" height="30" as="alternateBounds" />
          </mxGeometry>
        </mxCell>
        <mxCell id="wQsJqWTP1K3nV3xCuxTR-81" value="classe" style="shape=partialRectangle;connectable=0;fillColor=none;top=0;left=0;bottom=0;right=0;align=left;spacingLeft=6;overflow=hidden;whiteSpace=wrap;html=1;" vertex="1" parent="wQsJqWTP1K3nV3xCuxTR-79">
          <mxGeometry x="30" width="150" height="30" as="geometry">
            <mxRectangle width="150" height="30" as="alternateBounds" />
          </mxGeometry>
        </mxCell>
        <mxCell id="wQsJqWTP1K3nV3xCuxTR-83" value="Portagens" style="shape=table;startSize=30;container=1;collapsible=1;childLayout=tableLayout;fixedRows=1;rowLines=0;fontStyle=1;align=center;resizeLast=1;html=1;whiteSpace=wrap;" vertex="1" parent="1">
          <mxGeometry x="888" y="465.55999999999995" width="180" height="210" as="geometry" />
        </mxCell>
        <mxCell id="wQsJqWTP1K3nV3xCuxTR-84" value="" style="shape=tableRow;horizontal=0;startSize=0;swimlaneHead=0;swimlaneBody=0;fillColor=none;collapsible=0;dropTarget=0;points=[[0,0.5],[1,0.5]];portConstraint=eastwest;top=0;left=0;right=0;bottom=0;html=1;" vertex="1" parent="wQsJqWTP1K3nV3xCuxTR-83">
          <mxGeometry y="30" width="180" height="30" as="geometry" />
        </mxCell>
        <mxCell id="wQsJqWTP1K3nV3xCuxTR-85" value="PK,FK1" style="shape=partialRectangle;connectable=0;fillColor=none;top=0;left=0;bottom=0;right=0;fontStyle=1;overflow=hidden;html=1;whiteSpace=wrap;" vertex="1" parent="wQsJqWTP1K3nV3xCuxTR-84">
          <mxGeometry width="60" height="30" as="geometry">
            <mxRectangle width="60" height="30" as="alternateBounds" />
          </mxGeometry>
        </mxCell>
        <mxCell id="wQsJqWTP1K3nV3xCuxTR-86" value="barreira_saída" style="shape=partialRectangle;connectable=0;fillColor=none;top=0;left=0;bottom=0;right=0;align=left;spacingLeft=6;fontStyle=5;overflow=hidden;html=1;whiteSpace=wrap;" vertex="1" parent="wQsJqWTP1K3nV3xCuxTR-84">
          <mxGeometry x="60" width="120" height="30" as="geometry">
            <mxRectangle width="120" height="30" as="alternateBounds" />
          </mxGeometry>
        </mxCell>
        <mxCell id="wQsJqWTP1K3nV3xCuxTR-87" value="" style="shape=tableRow;horizontal=0;startSize=0;swimlaneHead=0;swimlaneBody=0;fillColor=none;collapsible=0;dropTarget=0;points=[[0,0.5],[1,0.5]];portConstraint=eastwest;top=0;left=0;right=0;bottom=1;html=1;" vertex="1" parent="wQsJqWTP1K3nV3xCuxTR-83">
          <mxGeometry y="60" width="180" height="30" as="geometry" />
        </mxCell>
        <mxCell id="wQsJqWTP1K3nV3xCuxTR-88" value="PK,FK2" style="shape=partialRectangle;connectable=0;fillColor=none;top=0;left=0;bottom=0;right=0;fontStyle=1;overflow=hidden;html=1;whiteSpace=wrap;" vertex="1" parent="wQsJqWTP1K3nV3xCuxTR-87">
          <mxGeometry width="60" height="30" as="geometry">
            <mxRectangle width="60" height="30" as="alternateBounds" />
          </mxGeometry>
        </mxCell>
        <mxCell id="wQsJqWTP1K3nV3xCuxTR-89" value="barreira_entrada" style="shape=partialRectangle;connectable=0;fillColor=none;top=0;left=0;bottom=0;right=0;align=left;spacingLeft=6;fontStyle=5;overflow=hidden;html=1;whiteSpace=wrap;" vertex="1" parent="wQsJqWTP1K3nV3xCuxTR-87">
          <mxGeometry x="60" width="120" height="30" as="geometry">
            <mxRectangle width="120" height="30" as="alternateBounds" />
          </mxGeometry>
        </mxCell>
        <mxCell id="wQsJqWTP1K3nV3xCuxTR-96" value="" style="shape=tableRow;horizontal=0;startSize=0;swimlaneHead=0;swimlaneBody=0;fillColor=none;collapsible=0;dropTarget=0;points=[[0,0.5],[1,0.5]];portConstraint=eastwest;top=0;left=0;right=0;bottom=0;html=1;" vertex="1" parent="wQsJqWTP1K3nV3xCuxTR-83">
          <mxGeometry y="90" width="180" height="30" as="geometry" />
        </mxCell>
        <mxCell id="wQsJqWTP1K3nV3xCuxTR-97" value="PK,FK1" style="shape=partialRectangle;connectable=0;fillColor=none;top=0;left=0;bottom=0;right=0;fontStyle=1;overflow=hidden;html=1;whiteSpace=wrap;" vertex="1" parent="wQsJqWTP1K3nV3xCuxTR-96">
          <mxGeometry width="60" height="30" as="geometry">
            <mxRectangle width="60" height="30" as="alternateBounds" />
          </mxGeometry>
        </mxCell>
        <mxCell id="wQsJqWTP1K3nV3xCuxTR-98" value="matricula_veiculo" style="shape=partialRectangle;connectable=0;fillColor=none;top=0;left=0;bottom=0;right=0;align=left;spacingLeft=6;fontStyle=5;overflow=hidden;html=1;whiteSpace=wrap;" vertex="1" parent="wQsJqWTP1K3nV3xCuxTR-96">
          <mxGeometry x="60" width="120" height="30" as="geometry">
            <mxRectangle width="120" height="30" as="alternateBounds" />
          </mxGeometry>
        </mxCell>
        <mxCell id="wQsJqWTP1K3nV3xCuxTR-90" value="" style="shape=tableRow;horizontal=0;startSize=0;swimlaneHead=0;swimlaneBody=0;fillColor=none;collapsible=0;dropTarget=0;points=[[0,0.5],[1,0.5]];portConstraint=eastwest;top=0;left=0;right=0;bottom=0;html=1;" vertex="1" parent="wQsJqWTP1K3nV3xCuxTR-83">
          <mxGeometry y="120" width="180" height="30" as="geometry" />
        </mxCell>
        <mxCell id="wQsJqWTP1K3nV3xCuxTR-91" value="" style="shape=partialRectangle;connectable=0;fillColor=none;top=0;left=0;bottom=0;right=0;editable=1;overflow=hidden;html=1;whiteSpace=wrap;" vertex="1" parent="wQsJqWTP1K3nV3xCuxTR-90">
          <mxGeometry width="60" height="30" as="geometry">
            <mxRectangle width="60" height="30" as="alternateBounds" />
          </mxGeometry>
        </mxCell>
        <mxCell id="wQsJqWTP1K3nV3xCuxTR-92" value="dia" style="shape=partialRectangle;connectable=0;fillColor=none;top=0;left=0;bottom=0;right=0;align=left;spacingLeft=6;overflow=hidden;html=1;whiteSpace=wrap;" vertex="1" parent="wQsJqWTP1K3nV3xCuxTR-90">
          <mxGeometry x="60" width="120" height="30" as="geometry">
            <mxRectangle width="120" height="30" as="alternateBounds" />
          </mxGeometry>
        </mxCell>
        <mxCell id="wQsJqWTP1K3nV3xCuxTR-93" value="" style="shape=tableRow;horizontal=0;startSize=0;swimlaneHead=0;swimlaneBody=0;fillColor=none;collapsible=0;dropTarget=0;points=[[0,0.5],[1,0.5]];portConstraint=eastwest;top=0;left=0;right=0;bottom=0;html=1;" vertex="1" parent="wQsJqWTP1K3nV3xCuxTR-83">
          <mxGeometry y="150" width="180" height="30" as="geometry" />
        </mxCell>
        <mxCell id="wQsJqWTP1K3nV3xCuxTR-94" value="" style="shape=partialRectangle;connectable=0;fillColor=none;top=0;left=0;bottom=0;right=0;editable=1;overflow=hidden;html=1;whiteSpace=wrap;" vertex="1" parent="wQsJqWTP1K3nV3xCuxTR-93">
          <mxGeometry width="60" height="30" as="geometry">
            <mxRectangle width="60" height="30" as="alternateBounds" />
          </mxGeometry>
        </mxCell>
        <mxCell id="wQsJqWTP1K3nV3xCuxTR-95" value="hora" style="shape=partialRectangle;connectable=0;fillColor=none;top=0;left=0;bottom=0;right=0;align=left;spacingLeft=6;overflow=hidden;html=1;whiteSpace=wrap;" vertex="1" parent="wQsJqWTP1K3nV3xCuxTR-93">
          <mxGeometry x="60" width="120" height="30" as="geometry">
            <mxRectangle width="120" height="30" as="alternateBounds" />
          </mxGeometry>
        </mxCell>
        <mxCell id="wQsJqWTP1K3nV3xCuxTR-99" value="" style="shape=tableRow;horizontal=0;startSize=0;swimlaneHead=0;swimlaneBody=0;fillColor=none;collapsible=0;dropTarget=0;points=[[0,0.5],[1,0.5]];portConstraint=eastwest;top=0;left=0;right=0;bottom=0;html=1;" vertex="1" parent="wQsJqWTP1K3nV3xCuxTR-83">
          <mxGeometry y="180" width="180" height="30" as="geometry" />
        </mxCell>
        <mxCell id="wQsJqWTP1K3nV3xCuxTR-100" value="" style="shape=partialRectangle;connectable=0;fillColor=none;top=0;left=0;bottom=0;right=0;editable=1;overflow=hidden;html=1;whiteSpace=wrap;" vertex="1" parent="wQsJqWTP1K3nV3xCuxTR-99">
          <mxGeometry width="60" height="30" as="geometry">
            <mxRectangle width="60" height="30" as="alternateBounds" />
          </mxGeometry>
        </mxCell>
        <mxCell id="wQsJqWTP1K3nV3xCuxTR-101" value="valor" style="shape=partialRectangle;connectable=0;fillColor=none;top=0;left=0;bottom=0;right=0;align=left;spacingLeft=6;overflow=hidden;html=1;whiteSpace=wrap;" vertex="1" parent="wQsJqWTP1K3nV3xCuxTR-99">
          <mxGeometry x="60" width="120" height="30" as="geometry">
            <mxRectangle width="120" height="30" as="alternateBounds" />
          </mxGeometry>
        </mxCell>
        <mxCell id="wQsJqWTP1K3nV3xCuxTR-102" style="edgeStyle=orthogonalEdgeStyle;rounded=0;orthogonalLoop=1;jettySize=auto;html=1;exitX=1;exitY=0.5;exitDx=0;exitDy=0;entryX=0.318;entryY=1.071;entryDx=0;entryDy=0;entryPerimeter=0;" edge="1" parent="1" source="wQsJqWTP1K3nV3xCuxTR-84" target="wQsJqWTP1K3nV3xCuxTR-21">
          <mxGeometry relative="1" as="geometry">
            <Array as="points">
              <mxPoint x="1131" y="511" />
              <mxPoint x="1131" y="392" />
              <mxPoint x="1205" y="392" />
            </Array>
          </mxGeometry>
        </mxCell>
        <mxCell id="wQsJqWTP1K3nV3xCuxTR-103" style="edgeStyle=orthogonalEdgeStyle;rounded=0;orthogonalLoop=1;jettySize=auto;html=1;exitX=1;exitY=0.5;exitDx=0;exitDy=0;entryX=0.522;entryY=1.113;entryDx=0;entryDy=0;entryPerimeter=0;" edge="1" parent="1" source="wQsJqWTP1K3nV3xCuxTR-87" target="wQsJqWTP1K3nV3xCuxTR-21">
          <mxGeometry relative="1" as="geometry">
            <mxPoint x="1286" y="362" as="targetPoint" />
            <Array as="points">
              <mxPoint x="1181" y="541" />
              <mxPoint x="1181" y="432" />
              <mxPoint x="1242" y="432" />
            </Array>
          </mxGeometry>
        </mxCell>
        <mxCell id="wQsJqWTP1K3nV3xCuxTR-104" style="edgeStyle=orthogonalEdgeStyle;rounded=0;orthogonalLoop=1;jettySize=auto;html=1;exitX=1;exitY=0.5;exitDx=0;exitDy=0;entryX=0;entryY=0.5;entryDx=0;entryDy=0;" edge="1" parent="1" source="wQsJqWTP1K3nV3xCuxTR-96" target="wQsJqWTP1K3nV3xCuxTR-61">
          <mxGeometry relative="1" as="geometry" />
        </mxCell>
        <mxCell id="wQsJqWTP1K3nV3xCuxTR-108" style="edgeStyle=orthogonalEdgeStyle;rounded=0;orthogonalLoop=1;jettySize=auto;html=1;exitX=1;exitY=0.5;exitDx=0;exitDy=0;entryX=0.613;entryY=0.983;entryDx=0;entryDy=0;entryPerimeter=0;" edge="1" parent="1" source="wQsJqWTP1K3nV3xCuxTR-79" target="wQsJqWTP1K3nV3xCuxTR-48">
          <mxGeometry relative="1" as="geometry" />
        </mxCell>
      </root>
    </mxGraphModel>
  </diagram>
</mxfile>
